<svg id="dataleak_orange" xmlns="http://www.w3.org/2000/svg" width="1180" height="279.36" viewBox="0 0 1180 279.36"><defs><style>.cls-1{fill:#f0f0f0;}.cls-2{fill:#ea7d5d;}</style></defs><g id="logo_full_without_slogan"><g id="path15328"><path class="cls-1" d="M146.07,199.91a15.07,15.07,0,0,1-21-1.79c-4.46-5.35-4.69-13.83,1.56-20.08,1.56-1.78,3.57-4,5.13-5.8,6.69-8.26,10.49-19.64,10.49-32.58,0-32.35-17.18-49.53-50.65-49.53H65.74V203a14.84,14.84,0,0,1-29.68,0V76.29A14.87,14.87,0,0,1,50.79,61.56H91.63c49.53,0,80.1,29.68,80.1,78.1C171.73,163.09,162.58,185.85,146.07,199.91Z"/><path class="cls-2" d="M95.2,217.76a14.84,14.84,0,1,1,15-14.73A14.86,14.86,0,0,1,95.2,217.76Z"/></g><g id="path15330"><path class="cls-1" d="M309.22,153.94,269.5,70a15.06,15.06,0,0,0-13.39-8.48A14.8,14.8,0,0,0,242.73,70L182.48,196.56a15.2,15.2,0,0,0,7.14,19.86,14.93,14.93,0,0,0,19.63-7.14l14.06-29.45h75a14.73,14.73,0,0,0,12.27-6.7C315.69,165.55,311.67,159.08,309.22,153.94Zm-73.86.45,20.75-43.74,21,43.74Z"/><path class="cls-2" d="M331.09,203a14.84,14.84,0,1,1-14.95-14.95A14.91,14.91,0,0,1,331.09,203Z"/></g><g id="path15332"><path class="cls-1" d="M395.24,203a14.73,14.73,0,1,1-29.45,0V91.24H333.43a14.84,14.84,0,0,1,0-29.68h47.09c8.92,0,14.72,6.7,14.72,14.73Z"/><path class="cls-2" d="M442.33,76.29A14.84,14.84,0,1,1,427.6,61.56,14.91,14.91,0,0,1,442.33,76.29Z"/></g><g id="path15334"><path class="cls-1" d="M560.66,153.94,520.94,70a15.06,15.06,0,0,0-13.38-8.48A14.82,14.82,0,0,0,494.17,70L433.92,196.56a15.2,15.2,0,0,0,7.14,19.86,14.94,14.94,0,0,0,19.64-7.14l14.06-29.45h75a14.73,14.73,0,0,0,12.27-6.7C567.13,165.55,563.12,159.08,560.66,153.94Zm-73.86.45,20.76-43.74,21,43.74Z"/><path class="cls-2" d="M582.53,203a14.84,14.84,0,1,1-14.95-14.95A14.9,14.9,0,0,1,582.53,203Z"/></g><g id="path15336"><path class="cls-1" d="M655.3,217.76H623.84A14.85,14.85,0,0,1,609.11,203V76.29a14.84,14.84,0,0,1,29.68,0V188.08H655.3a14.84,14.84,0,0,1,0,29.68Z"/><path class="cls-2" d="M685,203a14.73,14.73,0,1,1,14.72,14.73A14.76,14.76,0,0,1,685,203Z"/></g><g id="path15338"><path class="cls-1" d="M751.52,217.76A14.86,14.86,0,0,1,736.79,203V76.29a14.87,14.87,0,0,1,14.73-14.73h30.79a14.84,14.84,0,0,1,0,29.68H766.47v34.14h51.77c8.25,0,14.72,6,14.72,14.28,0,8-6.47,14.06-14.72,14.06H766.47v34.36h60.92a14.84,14.84,0,0,1,0,29.68Z"/><path class="cls-2" d="M826.72,91.24a14.84,14.84,0,1,1,14.72-14.95A14.95,14.95,0,0,1,826.72,91.24Z"/></g><g id="path15340"><path class="cls-1" d="M989.47,153.94,949.75,70a15.07,15.07,0,0,0-13.39-8.48A14.83,14.83,0,0,0,923,70L862.72,196.56a15.21,15.21,0,0,0,7.14,19.86,14.94,14.94,0,0,0,19.64-7.14l14.06-29.45h75a14.72,14.72,0,0,0,12.27-6.7C995.94,165.55,991.92,159.08,989.47,153.94Zm-73.86.45,20.75-43.74,21,43.74Z"/><path class="cls-2" d="M1011.33,203a14.84,14.84,0,1,1-15-14.95A14.9,14.9,0,0,1,1011.33,203Z"/></g><g id="path15342"><path class="cls-1" d="M1139.44,213.74a15,15,0,0,1-21-.44l-52-55.12V203a14.84,14.84,0,0,1-29.68,0V76.29a14.84,14.84,0,0,1,29.68,0v39.27l17-18.07a14.75,14.75,0,1,1,21,20.75l-19.86,18.3,55.34,56.23A15,15,0,0,1,1139.44,213.74Z"/><path class="cls-2" d="M1124.94,61.56a14.84,14.84,0,1,1-14.73,14.73A14.91,14.91,0,0,1,1124.94,61.56Z"/></g></g></svg>