<svg id="dataleak_orange" xmlns="http://www.w3.org/2000/svg" xmlns:xlink="http://www.w3.org/1999/xlink" width="457.02" height="457.02" viewBox="0 0 457.02 457.02"><defs><style>.cls-1{filter:url(#luminosity-invert-noclip);}.cls-2{fill:#fff;}.cls-3{mask:url(#mask);}.cls-4{fill:#36393f;}.cls-5{fill:none;stroke:#36393f;stroke-miterlimit:10;}</style><filter id="luminosity-invert-noclip" x="41.58" y="24.21" width="369.25" height="408.59" filterUnits="userSpaceOnUse" color-interpolation-filters="sRGB"><feColorMatrix values="-1 0 0 0 1 0 -1 0 0 1 0 0 -1 0 1 0 0 0 1 0" result="invert"/><feFlood flood-color="#fff" result="bg"/><feBlend in="invert" in2="bg"/></filter><mask id="mask" x="41.58" y="24.21" width="369.25" height="408.59" maskUnits="userSpaceOnUse"><g id="path15328" class="cls-1"><path class="cls-2" d="M288.9,314.79a21.59,21.59,0,0,1-30-2.56c-6.39-7.67-6.71-19.81,2.23-28.76,2.24-2.55,5.12-5.75,7.35-8.31,9.59-11.82,15-28.12,15-46.65,0-46.34-24.6-70.95-72.54-70.95H173.86v161.7a21.25,21.25,0,0,1-42.5,0V137.75a21.28,21.28,0,0,1,21.09-21.09h58.48c70.95,0,114.73,42.5,114.73,111.85C325.66,262.06,312.56,294.66,288.9,314.79Z"/><path class="cls-2" d="M216.05,340.36a21.26,21.26,0,1,1,21.41-21.1A21.29,21.29,0,0,1,216.05,340.36Z"/></g></mask></defs><g id="logo_simple_uni_color_hexa"><g id="logo_simple_uni_color_hexa_white"><g class="cls-3"><path class="cls-4" d="M68.06,107.2c-14.29,8.25-26,28.5-26,45V304.81c0,16.5,11.69,36.75,26,45l132.16,76.31c14.29,8.25,37.68,8.25,52,0l132.17-76.31c14.29-8.25,26-28.5,26-45V152.2c0-16.5-11.69-36.75-26-45L252.18,30.9c-14.28-8.25-37.67-8.25-52,0Z"/><path class="cls-5" d="M68.06,107.2c-14.29,8.25-26,28.5-26,45V304.81c0,16.5,11.69,36.75,26,45l132.16,76.31c14.29,8.25,37.68,8.25,52,0l132.17-76.31c14.29-8.25,26-28.5,26-45V152.2c0-16.5-11.69-36.75-26-45L252.18,30.9c-14.28-8.25-37.67-8.25-52,0Z"/></g></g></g></svg>