<svg id="dataleak_orange" xmlns="http://www.w3.org/2000/svg" width="1179" height="278.36" viewBox="0 0 1179 278.36"><defs><style>.cls-1{fill:#36393f;stroke:#36393f;stroke-miterlimit:10;}.cls-2{fill:#ea7d5d;}</style></defs><g id="logo_full_without_slogan_black"><g id="path15328"><path class="cls-1" d="M145.57,199.41a15.07,15.07,0,0,1-21-1.79c-4.46-5.35-4.69-13.83,1.56-20.08,1.56-1.78,3.57-4,5.13-5.8,6.69-8.26,10.49-19.64,10.49-32.58,0-32.35-17.18-49.53-50.65-49.53H65.24v112.9a14.84,14.84,0,0,1-29.68,0V75.79A14.87,14.87,0,0,1,50.29,61.06H91.13c49.53,0,80.1,29.68,80.1,78.1C171.23,162.59,162.08,185.35,145.57,199.41Z"/><path class="cls-2" d="M94.7,217.26a14.84,14.84,0,1,1,15-14.73A14.86,14.86,0,0,1,94.7,217.26Z"/></g><g id="path15330"><path class="cls-1" d="M308.72,153.44,269,69.54a15.06,15.06,0,0,0-13.39-8.48,14.8,14.8,0,0,0-13.38,8.48L182,196.06a15.2,15.2,0,0,0,7.14,19.86,14.93,14.93,0,0,0,19.63-7.14l14.06-29.45h75a14.73,14.73,0,0,0,12.27-6.7C315.19,165.05,311.17,158.58,308.72,153.44Zm-73.86.45,20.75-43.74,21,43.74Z"/><path class="cls-2" d="M330.59,202.53a14.84,14.84,0,1,1-14.95-14.95A14.91,14.91,0,0,1,330.59,202.53Z"/></g><g id="path15332"><path class="cls-1" d="M394.74,202.53a14.73,14.73,0,1,1-29.45,0V90.74H332.93a14.84,14.84,0,0,1,0-29.68H380c8.92,0,14.72,6.7,14.72,14.73Z"/><path class="cls-2" d="M441.83,75.79A14.84,14.84,0,1,1,427.1,61.06,14.91,14.91,0,0,1,441.83,75.79Z"/></g><g id="path15334"><path class="cls-1" d="M560.16,153.44l-39.72-83.9a15.06,15.06,0,0,0-13.38-8.48,14.82,14.82,0,0,0-13.39,8.48L433.42,196.06a15.2,15.2,0,0,0,7.14,19.86,14.94,14.94,0,0,0,19.64-7.14l14.06-29.45h75a14.73,14.73,0,0,0,12.27-6.7C566.63,165.05,562.62,158.58,560.16,153.44Zm-73.86.45,20.76-43.74,21,43.74Z"/><path class="cls-2" d="M582,202.53a14.84,14.84,0,1,1-14.95-14.95A14.9,14.9,0,0,1,582,202.53Z"/></g><g id="path15336"><path class="cls-1" d="M654.8,217.26H623.34a14.85,14.85,0,0,1-14.73-14.73V75.79a14.84,14.84,0,0,1,29.68,0V187.58H654.8a14.84,14.84,0,0,1,0,29.68Z"/><path class="cls-2" d="M684.48,202.53a14.73,14.73,0,1,1,14.72,14.73A14.76,14.76,0,0,1,684.48,202.53Z"/></g><g id="path15338"><path class="cls-1" d="M751,217.26a14.86,14.86,0,0,1-14.73-14.73V75.79A14.87,14.87,0,0,1,751,61.06h30.79a14.84,14.84,0,0,1,0,29.68H766v34.14h51.77c8.25,0,14.72,6,14.72,14.28,0,8-6.47,14.06-14.72,14.06H766v34.36h60.92a14.84,14.84,0,0,1,0,29.68Z"/><path class="cls-2" d="M826.22,90.74a14.84,14.84,0,1,1,14.72-14.95A14.95,14.95,0,0,1,826.22,90.74Z"/></g><g id="path15340"><path class="cls-1" d="M989,153.44l-39.72-83.9a15.07,15.07,0,0,0-13.39-8.48,14.83,14.83,0,0,0-13.39,8.48L862.22,196.06a15.21,15.21,0,0,0,7.14,19.86A14.94,14.94,0,0,0,889,208.78l14.06-29.45h75a14.72,14.72,0,0,0,12.27-6.7C995.44,165.05,991.42,158.58,989,153.44Zm-73.86.45,20.75-43.74,21,43.74Z"/><path class="cls-2" d="M1010.83,202.53a14.84,14.84,0,1,1-15-14.95A14.9,14.9,0,0,1,1010.83,202.53Z"/></g><g id="path15342"><path class="cls-1" d="M1138.94,213.24a15,15,0,0,1-21-.44l-52-55.12v44.85a14.84,14.84,0,0,1-29.68,0V75.79a14.84,14.84,0,0,1,29.68,0v39.27l17-18.07a14.75,14.75,0,1,1,21,20.75L1084.05,136l55.34,56.23A15,15,0,0,1,1138.94,213.24Z"/><path class="cls-2" d="M1124.44,61.06a14.84,14.84,0,1,1-14.73,14.73A14.91,14.91,0,0,1,1124.44,61.06Z"/></g></g></svg>