<svg id="dataleak_orange" xmlns="http://www.w3.org/2000/svg" width="457.02" height="457.02" viewBox="0 0 457.02 457.02"><defs><style>.cls-1{fill:#f0f0f0;}</style></defs><g id="logo_simple_uni_color"><g id="logo_simple_uni_color_white"><g id="path15328"><path class="cls-1" d="M288.9,314.79a21.59,21.59,0,0,1-30-2.56c-6.39-7.67-6.71-19.81,2.23-28.76,2.24-2.55,5.12-5.75,7.35-8.31,9.59-11.82,15-28.12,15-46.65,0-46.34-24.6-70.95-72.54-70.95H173.86v161.7a21.25,21.25,0,0,1-42.5,0V137.75a21.28,21.28,0,0,1,21.09-21.09h58.48c70.95,0,114.73,42.5,114.73,111.85C325.66,262.06,312.56,294.66,288.9,314.79Z"/><path class="cls-1" d="M216.05,340.36a21.26,21.26,0,1,1,21.41-21.1A21.29,21.29,0,0,1,216.05,340.36Z"/></g></g></g></svg>