<svg id="dataleak_orange" xmlns="http://www.w3.org/2000/svg" width="1180" height="840" viewBox="0 0 1180 840"><defs><style>.cls-1{fill:#36393f;stroke:#36393f;stroke-miterlimit:10;}.cls-2{fill:#ea7d5d;}</style></defs><g id="logo_full_black"><g id="path15328"><path class="cls-1" d="M146.07,419.47a15.06,15.06,0,0,1-21-1.78c-4.46-5.36-4.69-13.83,1.56-20.08,1.56-1.79,3.57-4,5.13-5.8,6.69-8.26,10.49-19.64,10.49-32.58,0-32.36-17.18-49.54-50.65-49.54H65.74V422.6a14.84,14.84,0,0,1-29.68,0V295.86a14.86,14.86,0,0,1,14.73-14.73H91.63c49.53,0,80.1,29.68,80.1,78.1C171.73,382.66,162.58,405.42,146.07,419.47Z"/><path class="cls-2" d="M95.2,437.33a14.84,14.84,0,1,1,15-14.73A14.87,14.87,0,0,1,95.2,437.33Z"/></g><g id="path15330"><path class="cls-1" d="M309.22,373.51l-39.72-83.9a15.06,15.06,0,0,0-13.39-8.48,14.8,14.8,0,0,0-13.38,8.48L182.48,416.13A15.2,15.2,0,0,0,189.62,436a14.94,14.94,0,0,0,19.63-7.14l14.06-29.46h75a14.75,14.75,0,0,0,12.27-6.69C315.69,385.11,311.67,378.64,309.22,373.51Zm-73.86.44,20.75-43.73,21,43.73Z"/><path class="cls-2" d="M331.09,422.6a14.84,14.84,0,1,1-14.95-15A14.91,14.91,0,0,1,331.09,422.6Z"/></g><g id="path15332"><path class="cls-1" d="M395.24,422.6a14.73,14.73,0,1,1-29.45,0V310.81H333.43a14.84,14.84,0,0,1,0-29.68h47.09c8.92,0,14.72,6.69,14.72,14.73Z"/><path class="cls-2" d="M442.33,295.86a14.84,14.84,0,1,1-14.73-14.73A14.91,14.91,0,0,1,442.33,295.86Z"/></g><g id="path15334"><path class="cls-1" d="M560.66,373.51l-39.72-83.9a15.06,15.06,0,0,0-13.38-8.48,14.82,14.82,0,0,0-13.39,8.48L433.92,416.13A15.2,15.2,0,0,0,441.06,436a15,15,0,0,0,19.64-7.14l14.06-29.46h75A14.75,14.75,0,0,0,562,392.7C567.13,385.11,563.12,378.64,560.66,373.51ZM486.8,374l20.76-43.73,21,43.73Z"/><path class="cls-2" d="M582.53,422.6a14.84,14.84,0,1,1-14.95-15A14.91,14.91,0,0,1,582.53,422.6Z"/></g><g id="path15336"><path class="cls-1" d="M655.3,437.33H623.84a14.86,14.86,0,0,1-14.73-14.73V295.86a14.84,14.84,0,0,1,29.68,0V407.65H655.3a14.84,14.84,0,0,1,0,29.68Z"/><path class="cls-2" d="M685,422.6a14.73,14.73,0,1,1,14.72,14.73A14.76,14.76,0,0,1,685,422.6Z"/></g><g id="path15338"><path class="cls-1" d="M751.52,437.33a14.87,14.87,0,0,1-14.73-14.73V295.86a14.86,14.86,0,0,1,14.73-14.73h30.79a14.84,14.84,0,0,1,0,29.68H766.47V345h51.77c8.25,0,14.72,6,14.72,14.28,0,8-6.47,14.06-14.72,14.06H766.47v34.36h60.92a14.84,14.84,0,0,1,0,29.68Z"/><path class="cls-2" d="M826.72,310.81a14.84,14.84,0,1,1,14.72-14.95A15,15,0,0,1,826.72,310.81Z"/></g><g id="path15340"><path class="cls-1" d="M989.47,373.51l-39.72-83.9a15.07,15.07,0,0,0-13.39-8.48A14.83,14.83,0,0,0,923,289.61L862.72,416.13A15.21,15.21,0,0,0,869.86,436a15,15,0,0,0,19.64-7.14l14.06-29.46h75a14.74,14.74,0,0,0,12.27-6.69C995.94,385.11,991.92,378.64,989.47,373.51Zm-73.86.44,20.75-43.73,21,43.73Z"/><path class="cls-2" d="M1011.33,422.6a14.84,14.84,0,1,1-15-15A14.91,14.91,0,0,1,1011.33,422.6Z"/></g><g id="path15342"><path class="cls-1" d="M1139.44,433.31a15,15,0,0,1-21-.45l-52-55.11V422.6a14.84,14.84,0,0,1-29.68,0V295.86a14.84,14.84,0,0,1,29.68,0v39.27l17-18.07a14.75,14.75,0,1,1,21,20.75l-19.86,18.29,55.34,56.23A15,15,0,0,1,1139.44,433.31Z"/><path class="cls-2" d="M1124.94,281.13a14.84,14.84,0,1,1-14.73,14.73A14.91,14.91,0,0,1,1124.94,281.13Z"/></g><g id="slogan-2" data-name="slogan"><path id="path15315" class="cls-1" d="M474.51,496.69l-2.73,21.82h24.4l-1.39,10.26H470.54l-3.62,29.36H454l8.83-71.7h41.8l-1.29,10.26Z"/><path id="path15317" class="cls-1" d="M516.49,519.45A36.88,36.88,0,0,1,520.6,513a19.25,19.25,0,0,1,4.62-4.22,10.9,10.9,0,0,1,4.9-1.78,9.67,9.67,0,0,1,5.06.79L533,519.5q-6-2.52-10.61,1.24t-7.24,14.83l-2.73,22.56h-12l6.14-50.92h6.25a4.3,4.3,0,0,1,3,.94,3.81,3.81,0,0,1,1.09,3Z"/><path id="path15319" class="cls-1" d="M567.21,515.29c-.46,0-.91,0-1.34,0a11.84,11.84,0,0,0-1.19,0,16,16,0,0,0-7.63,1.88,19.62,19.62,0,0,0-6.1,5.11,24.8,24.8,0,0,0-4,7.44,27.39,27.39,0,0,0-1.44,8.92c0,3.57.57,6.18,1.69,7.83a5.27,5.27,0,0,0,4.61,2.48,6.76,6.76,0,0,0,4-1.38,16.84,16.84,0,0,0,3.72-3.87,31.05,31.05,0,0,0,3.22-5.8,54.43,54.43,0,0,0,2.58-7.14Zm-3.37,32.22a30.25,30.25,0,0,1-7.64,8.29,15.36,15.36,0,0,1-9.22,3.07,13,13,0,0,1-5.4-1.14,12.61,12.61,0,0,1-4.37-3.37,17.46,17.46,0,0,1-2.92-5.66,27.29,27.29,0,0,1-1-8,34.52,34.52,0,0,1,1.14-8.87,34.63,34.63,0,0,1,8.33-15.08,31.94,31.94,0,0,1,14.62-9,31.53,31.53,0,0,1,9.08-1.29,47.7,47.7,0,0,1,6.84.5,29.79,29.79,0,0,1,6.74,1.78l-6.1,49.34h-6.49c-1.56,0-2.61-.38-3.18-1.14a5.25,5.25,0,0,1-.79-2.93Z"/><path id="path15321" class="cls-1" d="M601.32,517.77a27.37,27.37,0,0,1,8.58-8.48,18.6,18.6,0,0,1,9.72-2.83,12.39,12.39,0,0,1,5.7,1.29,10.89,10.89,0,0,1,4.16,3.77,15.6,15.6,0,0,1,2.28,6.05,25.46,25.46,0,0,1,.1,8.18L628,558.13H615.8l3.82-32.38q.64-5-.5-7.09a4.26,4.26,0,0,0-4.16-2.18,8.45,8.45,0,0,0-4.17,1.19,15.39,15.39,0,0,0-4.11,3.32,25.81,25.81,0,0,0-3.67,5.16,31.14,31.14,0,0,0-2.68,6.69l-2.83,25.29H585.26l6.09-50.92h6.2a4.3,4.3,0,0,1,3,.94,3.81,3.81,0,0,1,1.09,3Z"/><path id="path15323" class="cls-1" d="M678.07,549.1a43.94,43.94,0,0,1-4.85,4.66,22.91,22.91,0,0,1-4.67,3,18.45,18.45,0,0,1-5,1.58,30.34,30.34,0,0,1-5.71.5,20.23,20.23,0,0,1-7.93-1.49,16.72,16.72,0,0,1-5.9-4.31,19,19,0,0,1-3.72-6.7,27.77,27.77,0,0,1-1.29-8.72,35.68,35.68,0,0,1,.9-8,34,34,0,0,1,2.57-7.39,31.55,31.55,0,0,1,4.07-6.35,27,27,0,0,1,5.36-5,24.74,24.74,0,0,1,6.44-3.22,23.19,23.19,0,0,1,7.44-1.19,18.83,18.83,0,0,1,8.58,1.79,18.13,18.13,0,0,1,6.29,5.35l-3.91,4.66a5,5,0,0,1-1,.84,2.41,2.41,0,0,1-1.29.35,2.56,2.56,0,0,1-1.53-.49,12.69,12.69,0,0,0-1.59-1.14,10.11,10.11,0,0,0-2.28-1.1,9.57,9.57,0,0,0-3.52-.54,10.33,10.33,0,0,0-5.4,1.54,15.06,15.06,0,0,0-4.57,4.36,23.45,23.45,0,0,0-3.17,6.79,31.75,31.75,0,0,0-1.14,8.78c0,3.73.83,6.63,2.48,8.67a8.24,8.24,0,0,0,6.74,3,12.23,12.23,0,0,0,3.32-.4,13.69,13.69,0,0,0,2.53-.94,14.54,14.54,0,0,0,2-1.24c.56-.46,1.09-.88,1.58-1.24a13.19,13.19,0,0,1,1.39-1,3,3,0,0,1,1.49-.4,2.18,2.18,0,0,1,1.19.35,3.5,3.5,0,0,1,1,.79Z"/><path id="path15325" class="cls-1" d="M709.35,515.09a10.39,10.39,0,0,0-4.61,1,12.48,12.48,0,0,0-3.87,2.83,18.82,18.82,0,0,0-3,4.41,28.13,28.13,0,0,0-2,5.55,84.22,84.22,0,0,0,9.87-1.83,27.41,27.41,0,0,0,5.8-2.18,6.53,6.53,0,0,0,2.68-2.53,6.42,6.42,0,0,0,.69-2.88,3.89,3.89,0,0,0-.35-1.54,3.4,3.4,0,0,0-1-1.38,4.79,4.79,0,0,0-1.73-1.05,6.59,6.59,0,0,0-2.53-.44ZM694.87,537.4q0,12,10.16,12a16.62,16.62,0,0,0,3.87-.4,16.83,16.83,0,0,0,2.93-1,12.8,12.8,0,0,0,2.28-1.34l1.88-1.34a14.93,14.93,0,0,1,1.74-1,3.81,3.81,0,0,1,1.83-.44,2.3,2.3,0,0,1,1.14.29,3.53,3.53,0,0,1,1,.8l3.13,3.76a53,53,0,0,1-5.16,4.57,28.94,28.94,0,0,1-5.16,3.17,23.78,23.78,0,0,1-5.55,1.83,31.63,31.63,0,0,1-6.35.6,21.11,21.11,0,0,1-8.08-1.49,18.16,18.16,0,0,1-6.2-4.26,19.74,19.74,0,0,1-4-6.65,25.86,25.86,0,0,1-1.39-8.72,37.09,37.09,0,0,1,.84-7.89,36.67,36.67,0,0,1,2.53-7.33,30.82,30.82,0,0,1,4-6.4,27.51,27.51,0,0,1,5.35-5.06,25.25,25.25,0,0,1,6.6-3.32,24.68,24.68,0,0,1,7.73-1.19A19.34,19.34,0,0,1,717,507.7a15,15,0,0,1,5,3,11.61,11.61,0,0,1,3,4,10.58,10.58,0,0,1,1,4.37,14,14,0,0,1-1.39,6.24,12.51,12.51,0,0,1-4.86,5.06,34.51,34.51,0,0,1-9.52,3.87,104.33,104.33,0,0,1-15.37,2.53Z"/></g></g></svg>