<svg id="dataleak_orange" xmlns="http://www.w3.org/2000/svg" width="465.66" height="155.22" viewBox="0 0 465.66 155.22"><defs><style>.cls-1{fill:#ea7d5d;}.cls-2{fill:#fff;}.cls-3{fill:#36393f;}.cls-4{fill:#f0f0f0;}</style></defs><g id="palette_orange"><rect class="cls-1" width="155.22" height="155.22"/><rect class="cls-2" x="154.57" width="155.22" height="155.22"/><rect class="cls-3" x="309.8" width="155.22" height="155.22"/><path class="cls-3" d="M8.68,127.44l.54-2.74c-1.34,0-2-.57-2-1.61a1.51,1.51,0,0,1,.51-1.19,2.1,2.1,0,0,1,1.48-.47h.69l.84-4.26H9.19a2.14,2.14,0,0,1-1.47-.47,1.56,1.56,0,0,1-.52-1.17,1.49,1.49,0,0,1,.51-1.18,2.15,2.15,0,0,1,1.48-.45h2.19l.69-3.35a6.71,6.71,0,0,1,.35-1.33,1.78,1.78,0,0,1,.55-.74,1.54,1.54,0,0,1,.9-.24,1.57,1.57,0,0,1,1.18.41,1.39,1.39,0,0,1,.41,1c0,.1-.08.59-.25,1.48l-.54,2.72h3.21l.7-3.35c.1-.51.19-.92.28-1.23a1.69,1.69,0,0,1,.48-.79,1.38,1.38,0,0,1,1-.32,1.66,1.66,0,0,1,1.18.39,1.41,1.41,0,0,1,.42,1.07,3.86,3.86,0,0,1,0,.6,4.85,4.85,0,0,1-.09.57l-.08.34-.54,2.75c1.4,0,2.1.58,2.1,1.63a1.48,1.48,0,0,1-.5,1.17,2.2,2.2,0,0,1-1.48.44h-.75l-.88,4.26h1.63a2.1,2.1,0,0,1,1.48.47,1.58,1.58,0,0,1,.5,1.19,1.5,1.5,0,0,1-.49,1.16,2.16,2.16,0,0,1-1.49.45H19.05l-.69,3.37c-.1.54-.2,1-.28,1.24a1.57,1.57,0,0,1-.48.77,1.41,1.41,0,0,1-1,.33,1.58,1.58,0,0,1-1.16-.41,1.42,1.42,0,0,1-.42-1.07,7.3,7.3,0,0,1,.2-1.49l.55-2.74H12.52l-.69,3.37a7.23,7.23,0,0,1-.55,1.79,1.24,1.24,0,0,1-1.22.55A1.58,1.58,0,0,1,8.89,130a1.39,1.39,0,0,1-.43-1.07,4.36,4.36,0,0,1,.08-.75C8.6,127.9,8.64,127.65,8.68,127.44Zm8.57-10.27H14l-.86,4.26h3.27Z"/><path class="cls-3" d="M40,111.93h-9.8v5.27h9a2.16,2.16,0,0,1,1.49.45,1.54,1.54,0,0,1,.49,1.18,1.6,1.6,0,0,1-.49,1.19,2.08,2.08,0,0,1-1.49.46h-9v6.11H40.35a2.21,2.21,0,0,1,1.55.48,1.76,1.76,0,0,1,0,2.5,2.21,2.21,0,0,1-1.55.48H28.53a2.77,2.77,0,0,1-2-.63,2.8,2.8,0,0,1-.63-2V111.24a3.67,3.67,0,0,1,.28-1.53,1.75,1.75,0,0,1,.87-.87,3.73,3.73,0,0,1,1.52-.27H40a2.28,2.28,0,0,1,1.55.46,1.56,1.56,0,0,1,.51,1.21,1.58,1.58,0,0,1-.51,1.23A2.28,2.28,0,0,1,40,111.93Z"/><path class="cls-3" d="M59.61,127.62l-1-2.7H49.86l-1,2.75a9.84,9.84,0,0,1-1,2.18,1.63,1.63,0,0,1-1.39.56,2,2,0,0,1-1.45-.6,1.83,1.83,0,0,1-.63-1.36,3,3,0,0,1,.14-.91c.1-.31.26-.74.49-1.3l5.49-13.95c.16-.4.34-.88.56-1.44a7.27,7.27,0,0,1,.71-1.4,2.83,2.83,0,0,1,1-.9,3,3,0,0,1,1.5-.34,3.08,3.08,0,0,1,1.52.34,3,3,0,0,1,1,.89,6.19,6.19,0,0,1,.63,1.16c.17.42.38,1,.65,1.66l5.61,13.86a7,7,0,0,1,.66,2.3,1.91,1.91,0,0,1-.62,1.37,2,2,0,0,1-1.51.62,1.93,1.93,0,0,1-.87-.18,1.78,1.78,0,0,1-.62-.5,4.87,4.87,0,0,1-.54-1C59.92,128.33,59.75,128,59.61,127.62Zm-8.61-6h6.42l-3.24-8.86Z"/><path class="cls-3" d="M69.78,108.78h9.76a3.58,3.58,0,0,1,2,.44,1.63,1.63,0,0,1,.63,1.45,3,3,0,0,1-.74,1.62c-.49.68-1,1.42-1.68,2.24a23.75,23.75,0,0,0-2,3A24.9,24.9,0,0,0,76,122c-.23.77-.4,1.41-.5,1.91s-.2,1.17-.32,2-.22,1.43-.31,1.86a4.1,4.1,0,0,1-.87,2.07,2,2,0,0,1-1.5.58,1.81,1.81,0,0,1-1.44-.62,2.73,2.73,0,0,1-.54-1.84,11.16,11.16,0,0,1,.4-2.55,29.42,29.42,0,0,1,1.29-3.86,37.87,37.87,0,0,1,2.23-4.61,36.88,36.88,0,0,1,3.19-4.71H69.78a3.1,3.1,0,0,1-1.84-.45,1.62,1.62,0,0,1-.61-1.4,1.28,1.28,0,0,1,.65-1.3A4.56,4.56,0,0,1,69.78,108.78Z"/><path class="cls-3" d="M88,108.57h5.67a15.5,15.5,0,0,1,3.8.41,7.11,7.11,0,0,1,2.87,1.54q3.34,2.88,3.35,8.73a17.44,17.44,0,0,1-.33,3.53,10.78,10.78,0,0,1-1,2.88,8.68,8.68,0,0,1-1.81,2.29,7.14,7.14,0,0,1-1.89,1.25,8.78,8.78,0,0,1-2.2.66,17.67,17.67,0,0,1-2.66.19H88.06a3.55,3.55,0,0,1-1.79-.36,1.67,1.67,0,0,1-.78-1,6.56,6.56,0,0,1-.18-1.69V111.24A2.28,2.28,0,0,1,88,108.57ZM89.66,112v14.57H93c.73,0,1.29,0,1.7-.06a5.22,5.22,0,0,0,1.28-.29,3.56,3.56,0,0,0,1.14-.66c1.46-1.23,2.18-3.35,2.18-6.36a9.37,9.37,0,0,0-1-4.76,4.27,4.27,0,0,0-2.36-2,11.62,11.62,0,0,0-3.4-.43Z"/><path class="cls-3" d="M119,112.19h-7l-.83,4.75a8.11,8.11,0,0,1,3.83-1.12,6.57,6.57,0,0,1,2.63.53,6.73,6.73,0,0,1,3.6,3.66,7.15,7.15,0,0,1,.53,2.74,7.88,7.88,0,0,1-1,3.87,7.08,7.08,0,0,1-2.74,2.77,8.25,8.25,0,0,1-4.14,1,8.35,8.35,0,0,1-4.26-1,6,6,0,0,1-2.31-2.22,4.82,4.82,0,0,1-.68-2.19,1.63,1.63,0,0,1,.47-1.09,1.58,1.58,0,0,1,1.2-.51,2,2,0,0,1,1.83,1.42,5,5,0,0,0,1.58,2,3.74,3.74,0,0,0,2.23.73,3.42,3.42,0,0,0,2-.59,3.88,3.88,0,0,0,1.31-1.61,5.77,5.77,0,0,0,.46-2.33,5.32,5.32,0,0,0-.5-2.4A3.47,3.47,0,0,0,116,119.2a3.59,3.59,0,0,0-1.86-.49,3.86,3.86,0,0,0-1.81.31,14.54,14.54,0,0,0-1.55,1.07,3,3,0,0,1-1.68.77,1.81,1.81,0,0,1-1.28-.52,1.57,1.57,0,0,1-.55-1.18s.05-.38.16-1l1.23-7a3.31,3.31,0,0,1,.76-1.83,2.47,2.47,0,0,1,1.82-.57h7.73c1.52,0,2.29.58,2.29,1.74a1.53,1.53,0,0,1-.56,1.23A2.51,2.51,0,0,1,119,112.19Z"/><path class="cls-3" d="M128,108.57h5.67a15.42,15.42,0,0,1,3.79.41,7,7,0,0,1,2.87,1.54q3.36,2.88,3.36,8.73a17.4,17.4,0,0,1-.34,3.53,10.45,10.45,0,0,1-1,2.88,8.85,8.85,0,0,1-1.8,2.29,7.47,7.47,0,0,1-1.89,1.25,8.85,8.85,0,0,1-2.21.66,17.57,17.57,0,0,1-2.66.19H128.1a3.53,3.53,0,0,1-1.79-.36,1.67,1.67,0,0,1-.78-1,6.1,6.1,0,0,1-.19-1.69V111.24a2.29,2.29,0,0,1,2.67-2.67Zm1.68,3.45v14.57H133c.72,0,1.29,0,1.7-.06a5.14,5.14,0,0,0,1.27-.29,3.56,3.56,0,0,0,1.14-.66q2.19-1.85,2.19-6.36a9.37,9.37,0,0,0-1-4.76,4.29,4.29,0,0,0-2.37-2,11.62,11.62,0,0,0-3.4-.43Z"/><path class="cls-3" d="M170,127.8l.54-2.74c-1.35,0-2-.57-2-1.61a1.58,1.58,0,0,1,.5-1.2,2.19,2.19,0,0,1,1.49-.46h.69l.83-4.26h-1.52a2.13,2.13,0,0,1-1.47-.47,1.61,1.61,0,0,1,0-2.35,2.19,2.19,0,0,1,1.49-.45h2.18l.69-3.35a7.37,7.37,0,0,1,.36-1.33,1.63,1.63,0,0,1,.54-.74,1.54,1.54,0,0,1,.9-.24,1.58,1.58,0,0,1,1.19.41,1.42,1.42,0,0,1,.41,1c0,.1-.08.59-.25,1.48l-.54,2.72h3.21l.7-3.35c.1-.51.19-.92.28-1.23a1.67,1.67,0,0,1,.47-.79,1.41,1.41,0,0,1,1-.32,1.66,1.66,0,0,1,1.18.39,1.4,1.4,0,0,1,.41,1.07,5.74,5.74,0,0,1,0,.6c0,.2-.06.39-.1.57s-.06.29-.07.34l-.54,2.75c1.39,0,2.09.57,2.09,1.63a1.45,1.45,0,0,1-.5,1.17,2.18,2.18,0,0,1-1.48.44h-.74l-.88,4.26h1.62a2.09,2.09,0,0,1,1.48.47,1.54,1.54,0,0,1,.5,1.19,1.47,1.47,0,0,1-.49,1.16,2.14,2.14,0,0,1-1.49.45h-2.25l-.69,3.37c-.11.54-.2.95-.28,1.24a1.73,1.73,0,0,1-.48.77,1.43,1.43,0,0,1-1,.33,1.57,1.57,0,0,1-1.16-.41,1.42,1.42,0,0,1-.42-1.07,6.66,6.66,0,0,1,.2-1.49l.54-2.74h-3.23l-.69,3.37a7.7,7.7,0,0,1-.55,1.79,1.25,1.25,0,0,1-1.23.55,1.61,1.61,0,0,1-1.17-.41,1.42,1.42,0,0,1-.42-1.07,3.55,3.55,0,0,1,.08-.75C169.89,128.26,169.94,128,170,127.8Zm8.57-10.27h-3.24l-.86,4.26h3.26Z"/><path class="cls-3" d="M200,112.29h-8.57v5.49h7.17a2.11,2.11,0,0,1,1.48.45,1.69,1.69,0,0,1,0,2.38,2.22,2.22,0,0,1-1.48.44h-7.17v7.07a2.82,2.82,0,0,1-.61,2,2,2,0,0,1-1.55.65,2.05,2.05,0,0,1-1.58-.66,2.82,2.82,0,0,1-.61-2V111.6a3.67,3.67,0,0,1,.28-1.53,1.75,1.75,0,0,1,.87-.87,3.69,3.69,0,0,1,1.52-.27H200a2.28,2.28,0,0,1,1.55.46,1.73,1.73,0,0,1,0,2.43A2.23,2.23,0,0,1,200,112.29Z"/><path class="cls-3" d="M218.11,112.29h-8.57v5.49h7.17a2.11,2.11,0,0,1,1.48.45,1.69,1.69,0,0,1,0,2.38,2.22,2.22,0,0,1-1.48.44h-7.17v7.07a2.82,2.82,0,0,1-.61,2,2,2,0,0,1-1.55.65,2.05,2.05,0,0,1-1.58-.66,2.82,2.82,0,0,1-.61-2V111.6a3.67,3.67,0,0,1,.28-1.53,1.75,1.75,0,0,1,.87-.87,3.69,3.69,0,0,1,1.52-.27h10.25a2.28,2.28,0,0,1,1.55.46,1.73,1.73,0,0,1,0,2.43A2.23,2.23,0,0,1,218.11,112.29Z"/><path class="cls-3" d="M236.23,112.29h-8.57v5.49h7.17a2.11,2.11,0,0,1,1.48.45,1.69,1.69,0,0,1,0,2.38,2.22,2.22,0,0,1-1.48.44h-7.17v7.07a2.82,2.82,0,0,1-.61,2,2,2,0,0,1-1.55.65,2.05,2.05,0,0,1-1.58-.66,2.82,2.82,0,0,1-.61-2V111.6a3.67,3.67,0,0,1,.28-1.53,1.75,1.75,0,0,1,.87-.87,3.69,3.69,0,0,1,1.52-.27h10.25a2.28,2.28,0,0,1,1.55.46,1.73,1.73,0,0,1,0,2.43A2.23,2.23,0,0,1,236.23,112.29Z"/><path class="cls-3" d="M254.35,112.29h-8.57v5.49H253a2.11,2.11,0,0,1,1.48.45,1.69,1.69,0,0,1,0,2.38,2.22,2.22,0,0,1-1.48.44h-7.17v7.07a2.82,2.82,0,0,1-.61,2,2,2,0,0,1-1.55.65,2.05,2.05,0,0,1-1.58-.66,2.82,2.82,0,0,1-.61-2V111.6a3.67,3.67,0,0,1,.28-1.53,1.75,1.75,0,0,1,.87-.87,3.69,3.69,0,0,1,1.52-.27h10.25a2.28,2.28,0,0,1,1.55.46,1.73,1.73,0,0,1,0,2.43A2.23,2.23,0,0,1,254.35,112.29Z"/><path class="cls-3" d="M272.47,112.29H263.9v5.49h7.17a2.11,2.11,0,0,1,1.48.45,1.69,1.69,0,0,1,0,2.38,2.22,2.22,0,0,1-1.48.44H263.9v7.07a2.86,2.86,0,0,1-.6,2,2,2,0,0,1-1.56.65,2.05,2.05,0,0,1-1.58-.66,2.87,2.87,0,0,1-.61-2V111.6a3.67,3.67,0,0,1,.28-1.53,1.75,1.75,0,0,1,.87-.87,3.69,3.69,0,0,1,1.52-.27h10.25a2.28,2.28,0,0,1,1.55.46,1.73,1.73,0,0,1,0,2.43A2.23,2.23,0,0,1,272.47,112.29Z"/><path class="cls-3" d="M290.59,112.29H282v5.49h7.17a2.11,2.11,0,0,1,1.48.45,1.69,1.69,0,0,1,0,2.38,2.22,2.22,0,0,1-1.48.44H282v7.07a2.86,2.86,0,0,1-.6,2,2,2,0,0,1-1.56.65,2.05,2.05,0,0,1-1.58-.66,2.87,2.87,0,0,1-.61-2V111.6a3.67,3.67,0,0,1,.28-1.53,1.75,1.75,0,0,1,.87-.87,3.69,3.69,0,0,1,1.52-.27h10.25a2.28,2.28,0,0,1,1.55.46,1.73,1.73,0,0,1,0,2.43A2.23,2.23,0,0,1,290.59,112.29Z"/><path class="cls-4" d="M327.37,127.44l.54-2.74c-1.34,0-2-.57-2-1.61a1.51,1.51,0,0,1,.51-1.19,2.1,2.1,0,0,1,1.48-.47h.69l.84-4.26h-1.53a2.14,2.14,0,0,1-1.47-.47,1.52,1.52,0,0,1-.52-1.17,1.49,1.49,0,0,1,.51-1.18,2.15,2.15,0,0,1,1.48-.45h2.19l.69-3.35a6.71,6.71,0,0,1,.35-1.33,1.78,1.78,0,0,1,.55-.74,1.52,1.52,0,0,1,.9-.24,1.57,1.57,0,0,1,1.18.41,1.39,1.39,0,0,1,.41,1c0,.1-.08.59-.25,1.48l-.54,2.72h3.21l.7-3.35c.1-.51.19-.92.28-1.23a1.69,1.69,0,0,1,.48-.79,1.38,1.38,0,0,1,1-.32,1.66,1.66,0,0,1,1.18.39,1.41,1.41,0,0,1,.42,1.07,3.86,3.86,0,0,1,0,.6,4.85,4.85,0,0,1-.09.57l-.08.34-.54,2.75c1.4,0,2.1.58,2.1,1.63a1.48,1.48,0,0,1-.5,1.17,2.2,2.2,0,0,1-1.48.44h-.75l-.88,4.26H340a2.1,2.1,0,0,1,1.48.47,1.58,1.58,0,0,1,.5,1.19,1.5,1.5,0,0,1-.49,1.16,2.16,2.16,0,0,1-1.49.45h-2.26l-.69,3.37c-.1.54-.2,1-.28,1.24a1.65,1.65,0,0,1-.48.77,1.41,1.41,0,0,1-1,.33,1.58,1.58,0,0,1-1.16-.41,1.42,1.42,0,0,1-.42-1.07,7.3,7.3,0,0,1,.2-1.49l.55-2.74h-3.24l-.69,3.37a7.7,7.7,0,0,1-.55,1.79,1.24,1.24,0,0,1-1.22.55,1.58,1.58,0,0,1-1.17-.41,1.39,1.39,0,0,1-.43-1.07,4.36,4.36,0,0,1,.08-.75C327.29,127.9,327.33,127.65,327.37,127.44Zm8.57-10.27H332.7l-.86,4.26h3.27Z"/><path class="cls-4" d="M350.43,117.08a3.55,3.55,0,0,0,2.32-.79,3,3,0,0,0,.2-4.21,2.78,2.78,0,0,0-2.1-.81,3.7,3.7,0,0,0-1.47.25,2.27,2.27,0,0,0-.92.66,5,5,0,0,0-.63,1c-.2.43-.39.84-.55,1.22a1,1,0,0,1-.53.48,2,2,0,0,1-.88.18,1.49,1.49,0,0,1-1.07-.48,1.69,1.69,0,0,1-.5-1.27,3.31,3.31,0,0,1,.47-1.6,5.77,5.77,0,0,1,1.34-1.61,7,7,0,0,1,2.21-1.22,8.8,8.8,0,0,1,2.94-.46,8.25,8.25,0,0,1,2.6.39,6,6,0,0,1,2,1.12,4.87,4.87,0,0,1,1.31,1.7,5,5,0,0,1,.43,2.08,4.8,4.8,0,0,1-.63,2.51,8.52,8.52,0,0,1-1.83,2,7.83,7.83,0,0,1,1.93,1.41,5.22,5.22,0,0,1,1.57,3.82,6.41,6.41,0,0,1-.53,2.58,6.67,6.67,0,0,1-1.57,2.22,7.49,7.49,0,0,1-2.47,1.52,8.67,8.67,0,0,1-3.16.55,7.57,7.57,0,0,1-3.15-.63,7.2,7.2,0,0,1-2.29-1.57,6.94,6.94,0,0,1-1.36-2,4.22,4.22,0,0,1-.47-1.67,1.84,1.84,0,0,1,.55-1.37,2,2,0,0,1,1.37-.52,1.37,1.37,0,0,1,.79.25,1.12,1.12,0,0,1,.5.57,9.73,9.73,0,0,0,1.64,3,3.09,3.09,0,0,0,2.45,1,3.71,3.71,0,0,0,3.14-1.77,3.76,3.76,0,0,0,.55-2,3.71,3.71,0,0,0-.94-2.69,3.42,3.42,0,0,0-2.6-1c-.2,0-.5,0-.91.06l-.79,0a1.77,1.77,0,0,1-1.25-.4,1.45,1.45,0,0,1-.44-1.12,1.38,1.38,0,0,1,.53-1.13,2.41,2.41,0,0,1,1.57-.44Z"/><path class="cls-4" d="M365.47,118.43a6.77,6.77,0,0,1,2.17-1.76,5.92,5.92,0,0,1,2.62-.57,6.38,6.38,0,0,1,2.57.52,6.19,6.19,0,0,1,2.07,1.48,6.81,6.81,0,0,1,1.37,2.26,7.85,7.85,0,0,1,.48,2.73,7.51,7.51,0,0,1-.94,3.75,6.74,6.74,0,0,1-2.64,2.63,7.74,7.74,0,0,1-3.83.94,7.07,7.07,0,0,1-7-4.75,15.44,15.44,0,0,1-.95-5.75,19.11,19.11,0,0,1,.58-5,10.26,10.26,0,0,1,1.64-3.62,6.91,6.91,0,0,1,2.59-2.17,8,8,0,0,1,3.47-.73,7.23,7.23,0,0,1,3.3.73,5.63,5.63,0,0,1,2.16,1.82,3.78,3.78,0,0,1,.72,2.08,1.58,1.58,0,0,1-.45,1.09,1.5,1.5,0,0,1-1.16.49,1.87,1.87,0,0,1-1.14-.39,2.22,2.22,0,0,1-.78-1.07,3,3,0,0,0-1.07-1.42,2.84,2.84,0,0,0-1.7-.53,3,3,0,0,0-1.54.45,4,4,0,0,0-1.3,1.2C366,113.93,365.6,115.77,365.47,118.43Zm4,9.1a3,3,0,0,0,2.44-1.21,4.9,4.9,0,0,0,1-3.17,5.35,5.35,0,0,0-.45-2.29,3.49,3.49,0,0,0-1.25-1.47,3.15,3.15,0,0,0-1.74-.5,3.41,3.41,0,0,0-1.74.48,3.6,3.6,0,0,0-1.33,1.4,4.32,4.32,0,0,0-.51,2.14,5.24,5.24,0,0,0,1,3.3A3.13,3.13,0,0,0,369.43,127.53Z"/><path class="cls-4" d="M386.08,117.08a3.55,3.55,0,0,0,2.32-.79,2.74,2.74,0,0,0,1-2.27,2.7,2.7,0,0,0-.78-1.94,2.76,2.76,0,0,0-2.09-.81,3.72,3.72,0,0,0-1.48.25,2.24,2.24,0,0,0-.91.66,4.62,4.62,0,0,0-.64,1c-.2.43-.38.84-.55,1.22a1,1,0,0,1-.52.48,2.07,2.07,0,0,1-.88.18,1.53,1.53,0,0,1-1.08-.48,1.68,1.68,0,0,1-.49-1.27,3.29,3.29,0,0,1,.46-1.6,6,6,0,0,1,1.35-1.61,6.92,6.92,0,0,1,2.2-1.22,8.82,8.82,0,0,1,2.95-.46,8.18,8.18,0,0,1,2.59.39,6.11,6.11,0,0,1,2,1.12,4.84,4.84,0,0,1,1.3,1.7,5,5,0,0,1,.44,2.08,4.71,4.71,0,0,1-.64,2.51,8.26,8.26,0,0,1-1.82,2,8.22,8.22,0,0,1,1.93,1.41,5.38,5.38,0,0,1,1.17,1.75,5.27,5.27,0,0,1,.4,2.07,6.42,6.42,0,0,1-.54,2.58,6.53,6.53,0,0,1-1.57,2.22,7.39,7.39,0,0,1-2.47,1.52,8.63,8.63,0,0,1-3.16.55,7.49,7.49,0,0,1-3.14-.63,7.25,7.25,0,0,1-2.3-1.57,7.15,7.15,0,0,1-1.36-2,4.18,4.18,0,0,1-.46-1.67,1.8,1.8,0,0,1,.55-1.37,2,2,0,0,1,1.37-.52,1.39,1.39,0,0,1,.79.25,1.17,1.17,0,0,1,.5.57,10,10,0,0,0,1.63,3,3.09,3.09,0,0,0,2.45,1,3.74,3.74,0,0,0,3.15-1.77,3.84,3.84,0,0,0,.55-2,3.75,3.75,0,0,0-.94-2.69,3.46,3.46,0,0,0-2.61-1c-.19,0-.5,0-.91.06l-.79,0a1.75,1.75,0,0,1-1.24-.4,1.42,1.42,0,0,1-.44-1.12,1.37,1.37,0,0,1,.52-1.13,2.45,2.45,0,0,1,1.57-.44Z"/><path class="cls-4" d="M407.91,120.42a6.71,6.71,0,0,1-2.16,1.73,6.09,6.09,0,0,1-2.65.57,6.12,6.12,0,0,1-4.63-2,6.56,6.56,0,0,1-1.34-2.24,7.56,7.56,0,0,1-.47-2.68,7.7,7.7,0,0,1,.53-2.87,6.85,6.85,0,0,1,1.5-2.35A7.09,7.09,0,0,1,401,109a8.45,8.45,0,0,1,6.37.13,6.79,6.79,0,0,1,2.49,2,9.36,9.36,0,0,1,1.55,3.3,17.27,17.27,0,0,1,.54,4.51,19.38,19.38,0,0,1-.57,5,10.66,10.66,0,0,1-1.66,3.61,6.84,6.84,0,0,1-2.62,2.16,8,8,0,0,1-3.46.71,7.21,7.21,0,0,1-3.31-.72,5.63,5.63,0,0,1-2.13-1.8,3.72,3.72,0,0,1-.74-2.08,1.51,1.51,0,0,1,.46-1.09,1.49,1.49,0,0,1,1.15-.49,2,2,0,0,1,1.16.36,2.23,2.23,0,0,1,.78,1.08,2.89,2.89,0,0,0,1.07,1.41,2.81,2.81,0,0,0,1.68.54,3.15,3.15,0,0,0,1.58-.43,3.75,3.75,0,0,0,1.28-1.2Q407.7,124.4,407.91,120.42Zm-.34-4.48a6,6,0,0,0-.27-1.84,4.45,4.45,0,0,0-.76-1.45,3.5,3.5,0,0,0-1.17-1,3.15,3.15,0,0,0-1.49-.35,3,3,0,0,0-2.36,1.19,4.9,4.9,0,0,0-1,3.16,4.69,4.69,0,0,0,1,3.1,3.07,3.07,0,0,0,2.45,1.16,3.4,3.4,0,0,0,1.73-.48,3.52,3.52,0,0,0,1.35-1.38A4.21,4.21,0,0,0,407.57,115.94Z"/><path class="cls-4" d="M421.74,117.08a3.57,3.57,0,0,0,2.32-.79,3,3,0,0,0,.2-4.21,2.78,2.78,0,0,0-2.1-.81,3.66,3.66,0,0,0-1.47.25,2.27,2.27,0,0,0-.92.66,5,5,0,0,0-.63,1c-.2.43-.39.84-.55,1.22a1.09,1.09,0,0,1-.53.48,2,2,0,0,1-.88.18,1.53,1.53,0,0,1-1.08-.48,1.72,1.72,0,0,1-.49-1.27,3.31,3.31,0,0,1,.47-1.6,5.77,5.77,0,0,1,1.34-1.61,7,7,0,0,1,2.21-1.22,8.8,8.8,0,0,1,2.94-.46,8.14,8.14,0,0,1,2.59.39,6,6,0,0,1,2,1.12,4.72,4.72,0,0,1,1.3,1.7,4.85,4.85,0,0,1,.44,2.08,4.8,4.8,0,0,1-.63,2.51,8.52,8.52,0,0,1-1.83,2,8,8,0,0,1,1.93,1.41,5.57,5.57,0,0,1,1.18,1.75,5.45,5.45,0,0,1,.39,2.07,6.49,6.49,0,0,1-2.11,4.8,7.34,7.34,0,0,1-2.46,1.52,8.7,8.7,0,0,1-3.16.55,7.57,7.57,0,0,1-3.15-.63,7.22,7.22,0,0,1-3.66-3.53,4.35,4.35,0,0,1-.46-1.67,1.84,1.84,0,0,1,.55-1.37,2,2,0,0,1,1.37-.52,1.37,1.37,0,0,1,.79.25,1.12,1.12,0,0,1,.5.57,9.73,9.73,0,0,0,1.64,3,3.08,3.08,0,0,0,2.45,1,3.68,3.68,0,0,0,1.75-.45,4,4,0,0,0,1-6,3.43,3.43,0,0,0-2.61-1q-.29,0-.9.06l-.79,0a1.77,1.77,0,0,1-1.25-.4,1.45,1.45,0,0,1-.44-1.12,1.38,1.38,0,0,1,.53-1.13,2.41,2.41,0,0,1,1.57-.44Z"/><path class="cls-4" d="M446.52,111.93H438v5.49h7.17a2.13,2.13,0,0,1,1.48.45,1.52,1.52,0,0,1,.49,1.19,1.49,1.49,0,0,1-.5,1.19,2.17,2.17,0,0,1-1.47.44H438v7.07a2.82,2.82,0,0,1-.61,2,2,2,0,0,1-1.56.65,2,2,0,0,1-1.57-.66,2.82,2.82,0,0,1-.61-2V111.24a3.52,3.52,0,0,1,.28-1.53,1.75,1.75,0,0,1,.87-.87,3.69,3.69,0,0,1,1.52-.27h10.25a2.29,2.29,0,0,1,1.55.46,1.58,1.58,0,0,1,.5,1.21,1.61,1.61,0,0,1-.5,1.23A2.29,2.29,0,0,1,446.52,111.93Z"/></g></svg>