<svg xmlns="http://www.w3.org/2000/svg" xmlns:xlink="http://www.w3.org/1999/xlink" width="4422.07" height="1261.21" viewBox="0 0 4422.07 1261.21"><defs><style>.cls-1{fill:#fff;}.cls-2,.cls-3,.cls-6{fill:#36393f;}.cls-2{stroke:#000;}.cls-2,.cls-6,.cls-8{stroke-miterlimit:10;}.cls-4{fill:#ea7d5d;}.cls-5{fill:#f0f0f0;}.cls-6,.cls-8{stroke:#36393f;}.cls-7{mask:url(#mask);}.cls-8{fill:none;}.cls-9{mask:url(#mask-2);}.cls-10{mask:url(#mask-3);}.cls-11{mask:url(#mask-4);}.cls-12{filter:url(#luminosity-invert-noclip-4);}.cls-13{filter:url(#luminosity-invert-noclip-3);}.cls-14{filter:url(#luminosity-invert-noclip-2);}.cls-15{filter:url(#luminosity-invert-noclip);}</style><filter id="luminosity-invert-noclip" x="4007.14" y="24.21" width="369.25" height="408.59" filterUnits="userSpaceOnUse" color-interpolation-filters="sRGB"><feColorMatrix values="-1 0 0 0 1 0 -1 0 0 1 0 0 -1 0 1 0 0 0 1 0" result="invert"/><feFlood flood-color="#fff" result="bg"/><feBlend in="invert" in2="bg"/></filter><mask id="mask" x="4006.64" y="24.21" width="369.25" height="408.59" maskUnits="userSpaceOnUse"><g class="cls-15"><g transform="translate(-0.5)"><g id="path15328"><path class="cls-1" d="M4254.46,314.79a21.6,21.6,0,0,1-30-2.56c-6.39-7.67-6.71-19.81,2.24-28.76,2.24-2.55,5.11-5.75,7.35-8.31,9.59-11.82,15-28.12,15-46.65,0-46.34-24.61-70.95-72.54-70.95h-37.07v161.7a21.25,21.25,0,0,1-42.5,0V137.75A21.28,21.28,0,0,1,4118,116.66h58.48c70.94,0,114.72,42.5,114.72,111.85C4291.21,262.06,4278.11,294.66,4254.46,314.79Z"/></g></g></g></mask><filter id="luminosity-invert-noclip-2" x="3530.12" y="24.21" width="369.25" height="408.59" filterUnits="userSpaceOnUse" color-interpolation-filters="sRGB"><feColorMatrix values="-1 0 0 0 1 0 -1 0 0 1 0 0 -1 0 1 0 0 0 1 0" result="invert"/><feFlood flood-color="#fff" result="bg"/><feBlend in="invert" in2="bg"/></filter><mask id="mask-2" x="3529.62" y="24.21" width="369.25" height="408.59" maskUnits="userSpaceOnUse"><g class="cls-14"><g transform="translate(-0.5)"><g id="path15328-2" data-name="path15328"><path class="cls-2" d="M3777.45,314.79a21.6,21.6,0,0,1-30-2.56c-6.39-7.67-6.71-19.81,2.23-28.76,2.24-2.55,5.12-5.75,7.35-8.31,9.59-11.82,15-28.12,15-46.65,0-46.34-24.6-70.95-72.54-70.95H3662.4v161.7a21.25,21.25,0,0,1-42.5,0V137.75A21.28,21.28,0,0,1,3641,116.66h58.48c71,0,114.73,42.5,114.73,111.85C3814.2,262.06,3801.1,294.66,3777.45,314.79Z"/></g></g></g></mask><filter id="luminosity-invert-noclip-3" x="3530.12" y="600.21" width="369.25" height="408.59" filterUnits="userSpaceOnUse" color-interpolation-filters="sRGB"><feColorMatrix values="-1 0 0 0 1 0 -1 0 0 1 0 0 -1 0 1 0 0 0 1 0" result="invert"/><feFlood flood-color="#fff" result="bg"/><feBlend in="invert" in2="bg"/></filter><mask id="mask-3" x="3529.62" y="600.21" width="369.25" height="408.59" maskUnits="userSpaceOnUse"><g class="cls-13"><g transform="translate(-0.5)"><g id="path15328-3" data-name="path15328"><path class="cls-2" d="M3777.45,890.79a21.6,21.6,0,0,1-30-2.56c-6.39-7.67-6.71-19.81,2.23-28.76,2.24-2.55,5.12-5.75,7.35-8.31,9.59-11.82,15-28.12,15-46.65,0-46.34-24.6-71-72.54-71H3662.4v161.7a21.25,21.25,0,0,1-42.5,0V713.75A21.28,21.28,0,0,1,3641,692.66h58.48c71,0,114.73,42.5,114.73,111.85C3814.2,838.06,3801.1,870.66,3777.45,890.79Z"/><path class="cls-2" d="M3704.59,916.36a21.26,21.26,0,1,1,21.41-21.1A21.29,21.29,0,0,1,3704.59,916.36Z"/></g></g></g></mask><filter id="luminosity-invert-noclip-4" x="4007.14" y="600.21" width="369.25" height="408.59" filterUnits="userSpaceOnUse" color-interpolation-filters="sRGB"><feColorMatrix values="-1 0 0 0 1 0 -1 0 0 1 0 0 -1 0 1 0 0 0 1 0" result="invert"/><feFlood flood-color="#fff" result="bg"/><feBlend in="invert" in2="bg"/></filter><mask id="mask-4" x="4006.64" y="600.21" width="369.25" height="408.59" maskUnits="userSpaceOnUse"><g class="cls-12"><g transform="translate(-0.5)"><g id="path15328-4" data-name="path15328"><path class="cls-1" d="M4254.46,890.79a21.6,21.6,0,0,1-30-2.56c-6.39-7.67-6.71-19.81,2.24-28.76,2.24-2.55,5.11-5.75,7.35-8.31,9.59-11.82,15-28.12,15-46.65,0-46.34-24.61-71-72.54-71h-37.07v161.7a21.25,21.25,0,0,1-42.5,0V713.75A21.28,21.28,0,0,1,4118,692.66h58.48c70.94,0,114.72,42.5,114.72,111.85C4291.21,838.06,4278.11,870.66,4254.46,890.79Z"/><path class="cls-1" d="M4181.6,916.36a21.26,21.26,0,1,1,21.41-21.1A21.28,21.28,0,0,1,4181.6,916.36Z"/></g></g></g></mask></defs><g id="background"><rect id="background-2" data-name="background" class="cls-3" x="2534.01" y="576" width="457.02" height="457.02"/><rect id="background-3" data-name="background" class="cls-1" x="3965.06" y="576" width="457.02" height="457.02"/><rect id="background-4" data-name="background" class="cls-1" x="3488.04" y="576" width="457.02" height="457.02"/><rect id="background-5" data-name="background" class="cls-1" x="3488.04" width="457.02" height="457.02"/><rect id="background-6" data-name="background" class="cls-1" x="3011.02" y="576" width="457.02" height="457.02"/><rect id="background-7" data-name="background" class="cls-1" x="3011.02" width="457.02" height="457.02"/><rect id="background-8" data-name="background" class="cls-3" x="2534.01" width="457.02" height="457.02"/><rect id="background-9" data-name="background" class="cls-1" y="886.7" width="1179" height="278.36"/><rect id="background-10" data-name="background" class="cls-3" x="1219.3" y="886.7" width="1179" height="278.36"/><rect id="background-11" data-name="background" class="cls-1" y="2.99" width="1179" height="839"/><g id="background-12" data-name="background"><rect class="cls-3" x="1219.3" y="0.5" width="1179" height="839"/></g><rect id="background-13" data-name="background" class="cls-1" x="3965.06" width="457.02" height="457.02"/></g><g id="dataleak_orange"><g id="palette_orange"><rect class="cls-4" x="2534.01" y="1105.98" width="155.22" height="155.22"/><rect class="cls-1" x="2688.58" y="1105.98" width="155.22" height="155.22"/><rect class="cls-3" x="2843.8" y="1105.98" width="155.22" height="155.22"/><path class="cls-3" d="M2543.19,1233.42l.54-2.74c-1.35,0-2-.56-2-1.61a1.53,1.53,0,0,1,.51-1.19,2.1,2.1,0,0,1,1.48-.46h.69l.84-4.26h-1.53a2.1,2.1,0,0,1-1.47-.48,1.52,1.52,0,0,1-.52-1.17,1.47,1.47,0,0,1,.51-1.17,2.15,2.15,0,0,1,1.48-.45h2.18l.69-3.36a7.62,7.62,0,0,1,.36-1.33,1.59,1.59,0,0,1,.54-.73,1.48,1.48,0,0,1,.9-.25,1.62,1.62,0,0,1,1.19.41,1.42,1.42,0,0,1,.41,1c0,.1-.08.6-.25,1.48l-.54,2.73h3.21l.7-3.36c.1-.5.19-.91.28-1.23a1.74,1.74,0,0,1,.48-.79,1.41,1.41,0,0,1,1-.32,1.62,1.62,0,0,1,1.18.4,1.39,1.39,0,0,1,.42,1.07c0,.2,0,.4,0,.6s-.06.38-.1.56-.06.3-.07.34l-.54,2.76c1.4,0,2.09.57,2.09,1.62a1.51,1.51,0,0,1-.49,1.18,2.22,2.22,0,0,1-1.48.44h-.75l-.88,4.26h1.63a2.07,2.07,0,0,1,1.48.47,1.54,1.54,0,0,1,.49,1.18,1.5,1.5,0,0,1-.49,1.17,2.11,2.11,0,0,1-1.48.44h-2.26l-.69,3.37c-.11.54-.2,1-.28,1.25a1.79,1.79,0,0,1-.48.77,1.41,1.41,0,0,1-1,.33,1.63,1.63,0,0,1-1.16-.41,1.44,1.44,0,0,1-.42-1.07,7.39,7.39,0,0,1,.2-1.5l.54-2.74H2547l-.69,3.37a8,8,0,0,1-.55,1.8,1.26,1.26,0,0,1-1.22.55,1.66,1.66,0,0,1-1.18-.41,1.44,1.44,0,0,1-.42-1.07,4.37,4.37,0,0,1,.08-.76C2543.1,1233.88,2543.15,1233.64,2543.19,1233.42Zm8.57-10.26h-3.24l-.86,4.26h3.26Z" transform="translate(-0.5)"/><path class="cls-3" d="M2574.52,1217.91h-9.8v5.27h9a2.11,2.11,0,0,1,1.48.45,1.51,1.51,0,0,1,.49,1.18,1.56,1.56,0,0,1-.48,1.19,2.08,2.08,0,0,1-1.49.47h-9v6.1h10.14a2.23,2.23,0,0,1,1.55.48,1.66,1.66,0,0,1,.51,1.27,1.58,1.58,0,0,1-.51,1.23,2.23,2.23,0,0,1-1.55.48H2563a2.27,2.27,0,0,1-2.67-2.66v-16.15a3.58,3.58,0,0,1,.28-1.53,1.77,1.77,0,0,1,.87-.86,3.69,3.69,0,0,1,1.52-.27h11.48a2.23,2.23,0,0,1,1.55.46,1.55,1.55,0,0,1,.5,1.21,1.57,1.57,0,0,1-.5,1.22A2.23,2.23,0,0,1,2574.52,1217.91Z" transform="translate(-0.5)"/><path class="cls-3" d="M2594.12,1233.6l-1-2.7h-8.73l-1,2.76a9.7,9.7,0,0,1-1,2.17,1.64,1.64,0,0,1-1.4.57,2.05,2.05,0,0,1-1.45-.6,1.85,1.85,0,0,1-.63-1.37,2.93,2.93,0,0,1,.15-.9c.1-.32.26-.75.48-1.31l5.5-13.94c.15-.4.34-.88.56-1.45a7.79,7.79,0,0,1,.7-1.39,2.68,2.68,0,0,1,1-.9,3,3,0,0,1,1.5-.35,3,3,0,0,1,1.51.35,2.7,2.7,0,0,1,1,.88,6,6,0,0,1,.63,1.17c.17.41.39,1,.66,1.66l5.61,13.86a6.92,6.92,0,0,1,.66,2.3,1.92,1.92,0,0,1-.63,1.37,2,2,0,0,1-1.5.62,1.87,1.87,0,0,1-.88-.19,1.72,1.72,0,0,1-.61-.49,4.52,4.52,0,0,1-.54-1C2594.42,1234.32,2594.26,1233.93,2594.12,1233.6Zm-8.61-6h6.41l-3.23-8.86Z" transform="translate(-0.5)"/><path class="cls-3" d="M2604.29,1214.76H2614a3.68,3.68,0,0,1,2,.44,1.64,1.64,0,0,1,.63,1.45,3.15,3.15,0,0,1-.74,1.63c-.49.67-1,1.42-1.69,2.23a25.75,25.75,0,0,0-1.94,3,24.9,24.9,0,0,0-1.84,4.44,18.55,18.55,0,0,0-.5,1.92c-.1.51-.2,1.17-.32,2s-.22,1.43-.31,1.86a4.28,4.28,0,0,1-.87,2.07,2,2,0,0,1-1.5.58,1.82,1.82,0,0,1-1.44-.62,2.75,2.75,0,0,1-.54-1.84,11,11,0,0,1,.4-2.55,30.22,30.22,0,0,1,1.28-3.86,37.4,37.4,0,0,1,2.24-4.62,38.23,38.23,0,0,1,3.18-4.71h-7.83a3.08,3.08,0,0,1-1.84-.44,1.62,1.62,0,0,1-.61-1.4,1.29,1.29,0,0,1,.65-1.31A4.56,4.56,0,0,1,2604.29,1214.76Z" transform="translate(-0.5)"/><path class="cls-3" d="M2622.48,1214.56h5.67a15,15,0,0,1,3.79.41,6.94,6.94,0,0,1,2.88,1.53q3.34,2.88,3.35,8.74a16.85,16.85,0,0,1-.34,3.53,10.18,10.18,0,0,1-1,2.87,9.07,9.07,0,0,1-1.8,2.3,7.71,7.71,0,0,1-1.89,1.24,8.78,8.78,0,0,1-2.2.66,16.54,16.54,0,0,1-2.66.19h-5.67a3.55,3.55,0,0,1-1.79-.36,1.64,1.64,0,0,1-.78-1,6.51,6.51,0,0,1-.18-1.69v-15.75a2.28,2.28,0,0,1,2.66-2.66Zm1.69,3.44v14.57h3.29c.72,0,1.29,0,1.7,0a5.25,5.25,0,0,0,1.28-.3,3.31,3.31,0,0,0,1.14-.66q2.18-1.85,2.18-6.35a9.34,9.34,0,0,0-1-4.76,4.29,4.29,0,0,0-2.36-2,11.62,11.62,0,0,0-3.4-.43Z" transform="translate(-0.5)"/><path class="cls-3" d="M2653.54,1218.17h-7l-.84,4.75a8.27,8.27,0,0,1,3.84-1.11,6.6,6.6,0,0,1,2.63.52,6.94,6.94,0,0,1,2.15,1.46,7,7,0,0,1,1.45,2.21,7.11,7.11,0,0,1,.52,2.74,7.86,7.86,0,0,1-.95,3.86,7,7,0,0,1-2.74,2.77,8.15,8.15,0,0,1-4.14,1,8.24,8.24,0,0,1-4.26-1,5.9,5.9,0,0,1-2.31-2.22,4.63,4.63,0,0,1-.68-2.19,1.55,1.55,0,0,1,.47-1.08,1.59,1.59,0,0,1,1.2-.52,2,2,0,0,1,1.83,1.43,5,5,0,0,0,1.58,2,3.71,3.71,0,0,0,2.23.72,3.37,3.37,0,0,0,2-.59,3.67,3.67,0,0,0,1.31-1.61,5.57,5.57,0,0,0,.47-2.33,5.35,5.35,0,0,0-.5-2.4,3.49,3.49,0,0,0-1.34-1.49,3.64,3.64,0,0,0-1.86-.49,3.92,3.92,0,0,0-1.8.31,16,16,0,0,0-1.56,1.08,3.11,3.11,0,0,1-1.68.77,1.85,1.85,0,0,1-1.27-.52,1.59,1.59,0,0,1-.56-1.18c0-.05.06-.38.17-1l1.23-7a3.31,3.31,0,0,1,.76-1.83,2.44,2.44,0,0,1,1.81-.57h7.74c1.52,0,2.28.58,2.28,1.75a1.55,1.55,0,0,1-.55,1.23A2.51,2.51,0,0,1,2653.54,1218.17Z" transform="translate(-0.5)"/><path class="cls-3" d="M2662.52,1214.56h5.66a15,15,0,0,1,3.8.41,7,7,0,0,1,2.87,1.53q3.36,2.88,3.35,8.74a17.58,17.58,0,0,1-.33,3.53,10.5,10.5,0,0,1-1,2.87,9.07,9.07,0,0,1-1.8,2.3,7.71,7.71,0,0,1-1.89,1.24,8.85,8.85,0,0,1-2.21.66,16.45,16.45,0,0,1-2.66.19h-5.67a3.51,3.51,0,0,1-1.78-.36,1.66,1.66,0,0,1-.79-1,6.51,6.51,0,0,1-.18-1.69v-15.75a2.28,2.28,0,0,1,2.67-2.66Zm1.68,3.44v14.57h3.3c.72,0,1.28,0,1.7,0a5.18,5.18,0,0,0,1.27-.3,3.22,3.22,0,0,0,1.14-.66c1.46-1.23,2.18-3.35,2.18-6.35a9.46,9.46,0,0,0-.95-4.76,4.27,4.27,0,0,0-2.37-2,11.62,11.62,0,0,0-3.4-.43Z" transform="translate(-0.5)"/><path class="cls-3" d="M2704.49,1233.78l.54-2.74c-1.35,0-2-.56-2-1.61a1.52,1.52,0,0,1,.5-1.19,2.13,2.13,0,0,1,1.49-.46h.69l.83-4.27H2705a2.06,2.06,0,0,1-1.47-.47,1.52,1.52,0,0,1-.52-1.17,1.47,1.47,0,0,1,.5-1.17,2.18,2.18,0,0,1,1.49-.45h2.18l.69-3.36a7.62,7.62,0,0,1,.36-1.33,1.59,1.59,0,0,1,.54-.73,1.48,1.48,0,0,1,.9-.25,1.64,1.64,0,0,1,1.19.41,1.42,1.42,0,0,1,.41,1c0,.1-.09.59-.25,1.48l-.54,2.73h3.2l.71-3.36c.1-.5.19-.91.28-1.23a1.64,1.64,0,0,1,.47-.79,1.46,1.46,0,0,1,1-.32,1.6,1.6,0,0,1,1.17.4,1.39,1.39,0,0,1,.42,1.06,4.08,4.08,0,0,1,0,.61,5,5,0,0,1-.09.56c0,.18-.06.29-.07.34l-.55,2.76q2.1,0,2.1,1.62a1.52,1.52,0,0,1-.5,1.18,2.18,2.18,0,0,1-1.48.43h-.74l-.88,4.27h1.62a2,2,0,0,1,1.48.47,1.55,1.55,0,0,1,.5,1.18,1.5,1.5,0,0,1-.49,1.17,2.14,2.14,0,0,1-1.49.44h-2.25l-.69,3.37c-.11.54-.21,1-.29,1.25a1.68,1.68,0,0,1-.47.77,1.45,1.45,0,0,1-1,.33,1.61,1.61,0,0,1-1.16-.41,1.41,1.41,0,0,1-.43-1.07,6.84,6.84,0,0,1,.21-1.5l.54-2.74h-3.24l-.69,3.37a7.57,7.57,0,0,1-.54,1.8,1.28,1.28,0,0,1-1.23.55,1.62,1.62,0,0,1-1.17-.41,1.44,1.44,0,0,1-.42-1.07,3.58,3.58,0,0,1,.08-.76C2704.4,1234.24,2704.45,1234,2704.49,1233.78Zm8.56-10.27h-3.23l-.87,4.27h3.27Z" transform="translate(-0.5)"/><path class="cls-3" d="M2734.5,1218.27h-8.57v5.49h7.16a2.14,2.14,0,0,1,1.49.45,1.53,1.53,0,0,1,.49,1.19,1.48,1.48,0,0,1-.5,1.19,2.18,2.18,0,0,1-1.48.44h-7.16v7.08a2.85,2.85,0,0,1-.61,2,2.2,2.2,0,0,1-3.13,0,2.84,2.84,0,0,1-.61-2v-16.53a3.58,3.58,0,0,1,.28-1.53,1.7,1.7,0,0,1,.87-.86,3.66,3.66,0,0,1,1.52-.27h10.25a2.2,2.2,0,0,1,1.54.46,1.56,1.56,0,0,1,.51,1.21,1.58,1.58,0,0,1-.51,1.22A2.2,2.2,0,0,1,2734.5,1218.27Z" transform="translate(-0.5)"/><path class="cls-3" d="M2752.62,1218.27h-8.57v5.49h7.16a2.14,2.14,0,0,1,1.49.45,1.53,1.53,0,0,1,.49,1.19,1.48,1.48,0,0,1-.5,1.19,2.18,2.18,0,0,1-1.48.44h-7.16v7.08a2.85,2.85,0,0,1-.61,2,2.2,2.2,0,0,1-3.13,0,2.84,2.84,0,0,1-.61-2v-16.53a3.58,3.58,0,0,1,.28-1.53,1.7,1.7,0,0,1,.87-.86,3.66,3.66,0,0,1,1.52-.27h10.25a2.2,2.2,0,0,1,1.54.46,1.56,1.56,0,0,1,.51,1.21,1.58,1.58,0,0,1-.51,1.22A2.2,2.2,0,0,1,2752.62,1218.27Z" transform="translate(-0.5)"/><path class="cls-3" d="M2770.74,1218.27h-8.57v5.49h7.16a2.14,2.14,0,0,1,1.49.45,1.53,1.53,0,0,1,.49,1.19,1.48,1.48,0,0,1-.5,1.19,2.18,2.18,0,0,1-1.48.44h-7.16v7.08a2.85,2.85,0,0,1-.61,2,2.2,2.2,0,0,1-3.13,0,2.84,2.84,0,0,1-.61-2v-16.53a3.58,3.58,0,0,1,.28-1.53,1.7,1.7,0,0,1,.87-.86,3.69,3.69,0,0,1,1.52-.27h10.25a2.2,2.2,0,0,1,1.54.46,1.56,1.56,0,0,1,.51,1.21,1.58,1.58,0,0,1-.51,1.22A2.2,2.2,0,0,1,2770.74,1218.27Z" transform="translate(-0.5)"/><path class="cls-3" d="M2788.86,1218.27h-8.57v5.49h7.16a2.14,2.14,0,0,1,1.49.45,1.53,1.53,0,0,1,.49,1.19,1.48,1.48,0,0,1-.5,1.19,2.18,2.18,0,0,1-1.48.44h-7.16v7.08a2.85,2.85,0,0,1-.61,2,2.2,2.2,0,0,1-3.13,0,2.84,2.84,0,0,1-.61-2v-16.53a3.58,3.58,0,0,1,.28-1.53,1.7,1.7,0,0,1,.87-.86,3.69,3.69,0,0,1,1.52-.27h10.25a2.24,2.24,0,0,1,1.55.46,1.58,1.58,0,0,1,.5,1.21,1.61,1.61,0,0,1-.5,1.22A2.24,2.24,0,0,1,2788.86,1218.27Z" transform="translate(-0.5)"/><path class="cls-3" d="M2807,1218.27h-8.57v5.49h7.16a2.14,2.14,0,0,1,1.49.45,1.53,1.53,0,0,1,.49,1.19,1.48,1.48,0,0,1-.5,1.19,2.18,2.18,0,0,1-1.48.44h-7.16v7.08a2.85,2.85,0,0,1-.61,2,2.2,2.2,0,0,1-3.13,0,2.84,2.84,0,0,1-.61-2v-16.53a3.58,3.58,0,0,1,.28-1.53,1.7,1.7,0,0,1,.87-.86,3.69,3.69,0,0,1,1.52-.27H2807a2.24,2.24,0,0,1,1.55.46,1.58,1.58,0,0,1,.5,1.21,1.61,1.61,0,0,1-.5,1.22A2.24,2.24,0,0,1,2807,1218.27Z" transform="translate(-0.5)"/><path class="cls-3" d="M2825.1,1218.27h-8.57v5.49h7.16a2.14,2.14,0,0,1,1.49.45,1.53,1.53,0,0,1,.49,1.19,1.48,1.48,0,0,1-.5,1.19,2.18,2.18,0,0,1-1.48.44h-7.16v7.08a2.85,2.85,0,0,1-.61,2,2.2,2.2,0,0,1-3.13,0,2.84,2.84,0,0,1-.61-2v-16.53a3.58,3.58,0,0,1,.28-1.53,1.7,1.7,0,0,1,.87-.86,3.69,3.69,0,0,1,1.52-.27h10.25a2.24,2.24,0,0,1,1.55.46,1.58,1.58,0,0,1,.5,1.21,1.61,1.61,0,0,1-.5,1.22A2.24,2.24,0,0,1,2825.1,1218.27Z" transform="translate(-0.5)"/><path class="cls-5" d="M2861.88,1233.42l.54-2.74c-1.35,0-2-.56-2-1.61a1.53,1.53,0,0,1,.51-1.19,2.1,2.1,0,0,1,1.48-.46h.69l.83-4.26h-1.52a2.1,2.1,0,0,1-1.47-.48,1.52,1.52,0,0,1-.52-1.17,1.47,1.47,0,0,1,.51-1.17,2.15,2.15,0,0,1,1.48-.45h2.18l.69-3.36a7.62,7.62,0,0,1,.36-1.33,1.59,1.59,0,0,1,.54-.73,1.48,1.48,0,0,1,.9-.25,1.62,1.62,0,0,1,1.19.41,1.42,1.42,0,0,1,.41,1c0,.1-.08.6-.25,1.48l-.54,2.73h3.21l.7-3.36c.1-.5.19-.91.28-1.23a1.74,1.74,0,0,1,.48-.79,1.41,1.41,0,0,1,1-.32,1.62,1.62,0,0,1,1.18.4,1.39,1.39,0,0,1,.42,1.07c0,.2,0,.4,0,.6s-.06.38-.1.56-.06.3-.07.34l-.54,2.76c1.39,0,2.09.57,2.09,1.62a1.51,1.51,0,0,1-.49,1.18,2.22,2.22,0,0,1-1.48.44h-.75l-.88,4.26h1.63a2.07,2.07,0,0,1,1.48.47,1.54,1.54,0,0,1,.49,1.18,1.5,1.5,0,0,1-.49,1.17,2.13,2.13,0,0,1-1.48.44h-2.26l-.69,3.37c-.11.54-.2,1-.28,1.25a1.79,1.79,0,0,1-.48.77,1.41,1.41,0,0,1-1,.33,1.61,1.61,0,0,1-1.16-.41,1.44,1.44,0,0,1-.42-1.07,7.39,7.39,0,0,1,.2-1.5l.54-2.74h-3.23l-.69,3.37a8,8,0,0,1-.55,1.8,1.26,1.26,0,0,1-1.22.55,1.66,1.66,0,0,1-1.18-.41,1.44,1.44,0,0,1-.42-1.07,4.37,4.37,0,0,1,.08-.76C2861.79,1233.88,2861.84,1233.64,2861.88,1233.42Zm8.57-10.26h-3.24l-.86,4.26h3.26Z" transform="translate(-0.5)"/><path class="cls-5" d="M2884.94,1223.07a3.62,3.62,0,0,0,2.32-.79,2.76,2.76,0,0,0,1-2.27,2.72,2.72,0,0,0-2.87-2.76,3.63,3.63,0,0,0-1.47.25,2.48,2.48,0,0,0-.92.66,5.29,5.29,0,0,0-.64,1c-.2.43-.38.84-.54,1.22a1,1,0,0,1-.53.48,2.07,2.07,0,0,1-.88.18,1.53,1.53,0,0,1-1.08-.48,1.69,1.69,0,0,1-.49-1.26,3.44,3.44,0,0,1,.46-1.61,6,6,0,0,1,1.35-1.6,6.6,6.6,0,0,1,2.21-1.22,8.76,8.76,0,0,1,2.94-.47,8.14,8.14,0,0,1,2.59.39,6.11,6.11,0,0,1,2,1.12,4.81,4.81,0,0,1,1.3,1.7,4.89,4.89,0,0,1,.44,2.08,4.66,4.66,0,0,1-.64,2.51,8.47,8.47,0,0,1-1.82,2,8.49,8.49,0,0,1,1.93,1.4,5.61,5.61,0,0,1,1.18,1.76,5.41,5.41,0,0,1,.39,2.07,6.58,6.58,0,0,1-.53,2.58,6.43,6.43,0,0,1-1.58,2.21,7.47,7.47,0,0,1-2.47,1.53,8.83,8.83,0,0,1-3.15.55,7.57,7.57,0,0,1-3.15-.63,7.22,7.22,0,0,1-2.29-1.58,7.31,7.31,0,0,1-1.37-2,4.4,4.4,0,0,1-.46-1.67,1.81,1.81,0,0,1,.55-1.37,1.9,1.9,0,0,1,1.37-.52,1.46,1.46,0,0,1,.79.24,1.1,1.1,0,0,1,.5.58,9.88,9.88,0,0,0,1.63,3,3.1,3.1,0,0,0,2.46,1,3.68,3.68,0,0,0,1.75-.45,3.58,3.58,0,0,0,1.39-1.32,3.76,3.76,0,0,0,.55-2,3.68,3.68,0,0,0-.94-2.68,3.44,3.44,0,0,0-2.61-1q-.28,0-.9.06l-.8.06a1.81,1.81,0,0,1-1.24-.4,1.48,1.48,0,0,1-.44-1.13,1.41,1.41,0,0,1,.53-1.13,2.4,2.4,0,0,1,1.56-.43Z" transform="translate(-0.5)"/><path class="cls-5" d="M2900,1224.42a6.54,6.54,0,0,1,2.17-1.76,5.89,5.89,0,0,1,2.62-.57,6.25,6.25,0,0,1,2.57.52,6.15,6.15,0,0,1,2.07,1.48,6.88,6.88,0,0,1,1.37,2.26,7.83,7.83,0,0,1,.48,2.72,7.52,7.52,0,0,1-1,3.75,6.72,6.72,0,0,1-2.63,2.63,7.74,7.74,0,0,1-3.83,1,7.06,7.06,0,0,1-7-4.76,15.4,15.4,0,0,1-.95-5.75,19.69,19.69,0,0,1,.57-5,10.39,10.39,0,0,1,1.64-3.61,7,7,0,0,1,2.6-2.17,7.86,7.86,0,0,1,3.47-.74,7.1,7.1,0,0,1,3.3.74,5.57,5.57,0,0,1,2.15,1.81,3.75,3.75,0,0,1,.73,2.08,1.56,1.56,0,0,1-.45,1.09,1.52,1.52,0,0,1-1.16.5,1.87,1.87,0,0,1-1.14-.39,2.23,2.23,0,0,1-.78-1.08,3,3,0,0,0-1.07-1.41,2.78,2.78,0,0,0-1.7-.54,3.06,3.06,0,0,0-1.55.45,4,4,0,0,0-1.29,1.21Q2900.18,1220.43,2900,1224.42Zm3.95,9.09a3,3,0,0,0,2.45-1.21,4.88,4.88,0,0,0,1-3.17,5.2,5.2,0,0,0-.46-2.29,3.32,3.32,0,0,0-1.24-1.46,3.16,3.16,0,0,0-1.74-.51,3.41,3.41,0,0,0-1.74.48,3.53,3.53,0,0,0-1.33,1.4,4.35,4.35,0,0,0-.51,2.15,5.15,5.15,0,0,0,1,3.29A3.13,3.13,0,0,0,2903.93,1233.51Z" transform="translate(-0.5)"/><path class="cls-5" d="M2920.59,1223.07a3.6,3.6,0,0,0,2.32-.79,2.77,2.77,0,0,0,1-2.27,2.73,2.73,0,0,0-.78-2,2.78,2.78,0,0,0-2.1-.81,3.7,3.7,0,0,0-1.47.25,2.44,2.44,0,0,0-.91.66,4.86,4.86,0,0,0-.64,1c-.2.43-.38.84-.55,1.22a1,1,0,0,1-.53.48,2,2,0,0,1-.88.18,1.49,1.49,0,0,1-1.07-.48,1.66,1.66,0,0,1-.49-1.26,3.33,3.33,0,0,1,.46-1.61,5.79,5.79,0,0,1,1.35-1.6,6.55,6.55,0,0,1,2.2-1.22,8.8,8.8,0,0,1,2.94-.47,8.2,8.2,0,0,1,2.6.39,6,6,0,0,1,2,1.12,5,5,0,0,1,1.31,1.7,5,5,0,0,1,.44,2.08,4.75,4.75,0,0,1-.64,2.51,8.47,8.47,0,0,1-1.82,2,8.2,8.2,0,0,1,1.92,1.4,5.32,5.32,0,0,1,1.58,3.83,6.55,6.55,0,0,1-2.11,4.79,7.68,7.68,0,0,1-2.47,1.53,8.88,8.88,0,0,1-3.16.55,7.57,7.57,0,0,1-3.15-.63,7.25,7.25,0,0,1-3.65-3.53,4.22,4.22,0,0,1-.46-1.67,1.77,1.77,0,0,1,.55-1.37,1.89,1.89,0,0,1,1.37-.52,1.48,1.48,0,0,1,.79.24,1.08,1.08,0,0,1,.49.58,9.87,9.87,0,0,0,1.64,3,3.09,3.09,0,0,0,2.45,1,3.65,3.65,0,0,0,1.75-.45,3.51,3.51,0,0,0,1.39-1.32,4.21,4.21,0,0,0-.38-4.72,3.47,3.47,0,0,0-2.61-1c-.2,0-.5,0-.91.06l-.79.06a1.84,1.84,0,0,1-1.25-.4,1.48,1.48,0,0,1-.44-1.13,1.41,1.41,0,0,1,.53-1.13,2.43,2.43,0,0,1,1.57-.43Z" transform="translate(-0.5)"/><path class="cls-5" d="M2942.42,1226.41a6.81,6.81,0,0,1-2.16,1.72,6.09,6.09,0,0,1-2.65.58,6.26,6.26,0,0,1-4.64-2,6.92,6.92,0,0,1-1.34-2.24,8.14,8.14,0,0,1,.06-5.56,6.8,6.8,0,0,1,3.85-3.9,8.43,8.43,0,0,1,6.36.13,6.64,6.64,0,0,1,2.49,2,9.51,9.51,0,0,1,1.56,3.31,17.21,17.21,0,0,1,.54,4.51,19.44,19.44,0,0,1-.57,5,10.34,10.34,0,0,1-1.67,3.6,6.86,6.86,0,0,1-2.61,2.17,8.17,8.17,0,0,1-3.46.71,7.06,7.06,0,0,1-3.31-.73,5.58,5.58,0,0,1-2.14-1.8,3.7,3.7,0,0,1-.73-2.07,1.57,1.57,0,0,1,.45-1.1,1.54,1.54,0,0,1,1.16-.48,2,2,0,0,1,1.16.35,2.28,2.28,0,0,1,.78,1.08,2.92,2.92,0,0,0,1.07,1.42,2.82,2.82,0,0,0,1.68.53,3.17,3.17,0,0,0,1.58-.42,4,4,0,0,0,1.28-1.21C2941.86,1230.9,2942.28,1229.05,2942.42,1226.41Zm-.34-4.49a6,6,0,0,0-.27-1.83,4.7,4.7,0,0,0-.76-1.46,3.68,3.68,0,0,0-1.18-1,3.23,3.23,0,0,0-1.48-.35,2.94,2.94,0,0,0-2.36,1.19,4.85,4.85,0,0,0-1,3.16,4.67,4.67,0,0,0,1,3.11,3,3,0,0,0,2.45,1.15,3.39,3.39,0,0,0,1.73-.47,3.68,3.68,0,0,0,1.35-1.39A4.16,4.16,0,0,0,2942.08,1221.92Z" transform="translate(-0.5)"/><path class="cls-5" d="M2956.24,1223.07a3.63,3.63,0,0,0,2.33-.79,2.79,2.79,0,0,0,1-2.27,2.72,2.72,0,0,0-2.87-2.76,3.63,3.63,0,0,0-1.47.25,2.48,2.48,0,0,0-.92.66,5.29,5.29,0,0,0-.64,1c-.2.43-.38.84-.55,1.22a1,1,0,0,1-.52.48,2.07,2.07,0,0,1-.88.18,1.53,1.53,0,0,1-1.08-.48,1.66,1.66,0,0,1-.49-1.26,3.33,3.33,0,0,1,.46-1.61,6,6,0,0,1,1.35-1.6,6.65,6.65,0,0,1,2.2-1.22,8.82,8.82,0,0,1,2.95-.47,8.14,8.14,0,0,1,2.59.39,6.11,6.11,0,0,1,2,1.12,4.93,4.93,0,0,1,1.3,1.7,5,5,0,0,1,.44,2.08,4.66,4.66,0,0,1-.64,2.51,8.47,8.47,0,0,1-1.82,2,8.49,8.49,0,0,1,1.93,1.4,5.61,5.61,0,0,1,1.18,1.76,5.41,5.41,0,0,1,.39,2.07,6.45,6.45,0,0,1-2.11,4.79,7.47,7.47,0,0,1-2.47,1.53,8.83,8.83,0,0,1-3.15.55,7.51,7.51,0,0,1-3.15-.63,7.33,7.33,0,0,1-3.66-3.53,4.4,4.4,0,0,1-.46-1.67,1.77,1.77,0,0,1,.55-1.37,1.9,1.9,0,0,1,1.37-.52,1.46,1.46,0,0,1,.79.24,1.15,1.15,0,0,1,.5.58,9.88,9.88,0,0,0,1.63,3,3.1,3.1,0,0,0,2.46,1,3.71,3.71,0,0,0,1.75-.45,3.58,3.58,0,0,0,1.39-1.32,3.84,3.84,0,0,0,.55-2,3.72,3.72,0,0,0-.94-2.68,3.45,3.45,0,0,0-2.61-1c-.19,0-.5,0-.91.06l-.79.06a1.81,1.81,0,0,1-1.24-.4,1.48,1.48,0,0,1-.44-1.13,1.38,1.38,0,0,1,.53-1.13,2.4,2.4,0,0,1,1.56-.43Z" transform="translate(-0.5)"/><path class="cls-5" d="M2981,1217.91h-8.57v5.49h7.16a2.14,2.14,0,0,1,1.49.45,1.53,1.53,0,0,1,.49,1.19,1.51,1.51,0,0,1-.5,1.19,2.18,2.18,0,0,1-1.48.44h-7.16v7.08a2.85,2.85,0,0,1-.61,2,2.2,2.2,0,0,1-3.13,0,2.84,2.84,0,0,1-.61-2v-16.53a3.58,3.58,0,0,1,.28-1.53,1.7,1.7,0,0,1,.87-.86,3.66,3.66,0,0,1,1.52-.27H2981a2.2,2.2,0,0,1,1.54.46,1.56,1.56,0,0,1,.51,1.21,1.58,1.58,0,0,1-.51,1.22A2.2,2.2,0,0,1,2981,1217.91Z" transform="translate(-0.5)"/></g><g id="logo_full"><g id="dataleak"><g id="path15328-5" data-name="path15328"><path class="cls-5" d="M1365.37,419.47a15.07,15.07,0,0,1-21-1.78c-4.46-5.36-4.69-13.83,1.56-20.08,1.57-1.79,3.57-4,5.13-5.8,6.7-8.26,10.49-19.64,10.49-32.58,0-32.36-17.18-49.54-50.65-49.54h-25.88V422.6a14.84,14.84,0,0,1-29.68,0V295.86a14.85,14.85,0,0,1,14.73-14.73h40.83c49.54,0,80.11,29.68,80.11,78.1C1391,382.66,1381.89,405.42,1365.37,419.47Z" transform="translate(-0.5)"/><path class="cls-4" d="M1314.5,437.33a14.84,14.84,0,1,1,15-14.73A14.87,14.87,0,0,1,1314.5,437.33Z" transform="translate(-0.5)"/></g><g id="path15330"><path class="cls-5" d="M1528.52,373.51l-39.71-83.9a15.08,15.08,0,0,0-13.39-8.48,14.82,14.82,0,0,0-13.39,8.48l-60.25,126.52a15.2,15.2,0,0,0,7.14,19.86,15,15,0,0,0,19.64-7.14l14.06-29.46h75a14.75,14.75,0,0,0,12.27-6.69C1535,385.11,1531,378.64,1528.52,373.51Zm-73.86.44,20.76-43.73,21,43.73Z" transform="translate(-0.5)"/><path class="cls-4" d="M1550.39,422.6a14.84,14.84,0,1,1-15-15A14.91,14.91,0,0,1,1550.39,422.6Z" transform="translate(-0.5)"/></g><g id="path15332"><path class="cls-5" d="M1614.55,422.6a14.73,14.73,0,0,1-29.46,0V310.81h-32.35a14.84,14.84,0,0,1,0-29.68h47.08c8.93,0,14.73,6.69,14.73,14.73Z" transform="translate(-0.5)"/><path class="cls-4" d="M1661.63,295.86a14.84,14.84,0,1,1-14.73-14.73A14.91,14.91,0,0,1,1661.63,295.86Z" transform="translate(-0.5)"/></g><g id="path15334"><path class="cls-5" d="M1780,373.51l-39.72-83.9a15.07,15.07,0,0,0-13.39-8.48,14.83,14.83,0,0,0-13.39,8.48l-60.25,126.52a15.21,15.21,0,0,0,7.14,19.86,15,15,0,0,0,19.64-7.14l14.06-29.46h75a14.74,14.74,0,0,0,12.27-6.69C1786.44,385.11,1782.42,378.64,1780,373.51Zm-73.86.44,20.75-43.73,21,43.73Z" transform="translate(-0.5)"/><path class="cls-4" d="M1801.83,422.6a14.84,14.84,0,1,1-14.95-15A14.91,14.91,0,0,1,1801.83,422.6Z" transform="translate(-0.5)"/></g><g id="path15336"><path class="cls-5" d="M1874.6,437.33h-31.46a14.87,14.87,0,0,1-14.73-14.73V295.86a14.84,14.84,0,0,1,29.68,0V407.65h16.51a14.84,14.84,0,0,1,0,29.68Z" transform="translate(-0.5)"/><path class="cls-4" d="M1904.28,422.6A14.73,14.73,0,1,1,1919,437.33,14.76,14.76,0,0,1,1904.28,422.6Z" transform="translate(-0.5)"/></g><g id="path15338"><path class="cls-5" d="M1970.82,437.33a14.86,14.86,0,0,1-14.72-14.73V295.86a14.85,14.85,0,0,1,14.72-14.73h30.8a14.84,14.84,0,0,1,0,29.68h-15.85V345h51.77c8.26,0,14.73,6,14.73,14.28,0,8-6.47,14.06-14.73,14.06h-51.77v34.36h60.92a14.84,14.84,0,0,1,0,29.68Z" transform="translate(-0.5)"/><path class="cls-4" d="M2046,310.81a14.84,14.84,0,1,1,14.73-14.95A15,15,0,0,1,2046,310.81Z" transform="translate(-0.5)"/></g><g id="path15340"><path class="cls-5" d="M2208.77,373.51l-39.72-83.9a15.06,15.06,0,0,0-13.39-8.48,14.8,14.8,0,0,0-13.38,8.48L2082,416.13a15.2,15.2,0,0,0,7.14,19.86,14.94,14.94,0,0,0,19.63-7.14l14.06-29.46h75a14.75,14.75,0,0,0,12.27-6.69C2215.24,385.11,2211.22,378.64,2208.77,373.51Zm-73.86.44,20.75-43.73,21,43.73Z" transform="translate(-0.5)"/><path class="cls-4" d="M2230.64,422.6a14.84,14.84,0,1,1-14.95-15A14.91,14.91,0,0,1,2230.64,422.6Z" transform="translate(-0.5)"/></g><g id="path15342"><path class="cls-5" d="M2358.74,433.31a15,15,0,0,1-21-.45l-52-55.11V422.6a14.84,14.84,0,0,1-29.68,0V295.86a14.84,14.84,0,0,1,29.68,0v39.27l17-18.07a14.75,14.75,0,1,1,21,20.75l-19.86,18.29,55.34,56.23A15,15,0,0,1,2358.74,433.31Z" transform="translate(-0.5)"/><path class="cls-4" d="M2344.24,281.13a14.84,14.84,0,1,1-14.73,14.73A14.9,14.9,0,0,1,2344.24,281.13Z" transform="translate(-0.5)"/></g></g><g id="slogan"><g id="slogan-2" data-name="slogan"><path id="path15315" class="cls-5" d="M1693.81,496.69l-2.72,21.82h24.39l-1.39,10.26h-24.24l-3.62,29.36h-12.94l8.82-71.7h41.8l-1.29,10.26Z" transform="translate(-0.5)"/><path id="path15317" class="cls-5" d="M1735.79,519.45a36.31,36.31,0,0,1,4.12-6.44,19.22,19.22,0,0,1,4.61-4.22,10.94,10.94,0,0,1,4.91-1.78,9.7,9.7,0,0,1,5.06.79l-2.24,11.7q-6-2.52-10.61,1.24t-7.24,14.83l-2.72,22.56h-12l6.15-50.92h6.24a4.3,4.3,0,0,1,3,.94,3.78,3.78,0,0,1,1.09,3Z" transform="translate(-0.5)"/><path id="path15319" class="cls-5" d="M1786.51,515.29c-.46,0-.91,0-1.34,0a11.72,11.72,0,0,0-1.19,0,16,16,0,0,0-7.63,1.88,19.62,19.62,0,0,0-6.1,5.11,25,25,0,0,0-4,7.44,27.65,27.65,0,0,0-1.43,8.92q0,5.36,1.68,7.83a5.28,5.28,0,0,0,4.61,2.48,6.76,6.76,0,0,0,4-1.38,16.84,16.84,0,0,0,3.72-3.87,31.05,31.05,0,0,0,3.22-5.8,54.43,54.43,0,0,0,2.58-7.14Zm-3.37,32.22a30.38,30.38,0,0,1-7.63,8.29,15.39,15.39,0,0,1-9.23,3.07,13,13,0,0,1-5.4-1.14,12.58,12.58,0,0,1-4.36-3.37,17.47,17.47,0,0,1-2.93-5.66,27.63,27.63,0,0,1-1-8,34.52,34.52,0,0,1,1.14-8.87,35.05,35.05,0,0,1,3.22-8.08,35.6,35.6,0,0,1,5.11-7,33,33,0,0,1,6.64-5.45,32.7,32.7,0,0,1,8-3.52,31.47,31.47,0,0,1,9.07-1.29,47.7,47.7,0,0,1,6.84.5,29.87,29.87,0,0,1,6.75,1.78l-6.1,49.34h-6.5c-1.55,0-2.61-.38-3.17-1.14a5.17,5.17,0,0,1-.79-2.93Z" transform="translate(-0.5)"/><path id="path15321" class="cls-5" d="M1820.62,517.77a27.37,27.37,0,0,1,8.58-8.48,18.6,18.6,0,0,1,9.72-2.83,12.33,12.33,0,0,1,5.7,1.29,10.84,10.84,0,0,1,4.17,3.77,15.6,15.6,0,0,1,2.28,6.05,26,26,0,0,1,.1,8.18l-3.82,32.38H1835.1l3.82-32.38q.64-5-.5-7.09c-.76-1.46-2.14-2.18-4.16-2.18a8.48,8.48,0,0,0-4.17,1.19A15.39,15.39,0,0,0,1826,521a26.21,26.21,0,0,0-3.67,5.16,31.66,31.66,0,0,0-2.68,6.69l-2.82,25.29h-12.25l6.1-50.92h6.2a4.27,4.27,0,0,1,3,.94,3.78,3.78,0,0,1,1.09,3Z" transform="translate(-0.5)"/><path id="path15323" class="cls-5" d="M1897.38,549.1a44.87,44.87,0,0,1-4.86,4.66,22.86,22.86,0,0,1-4.66,3,18.63,18.63,0,0,1-5,1.58,30.31,30.31,0,0,1-5.7.5,20.2,20.2,0,0,1-7.93-1.49,16.54,16.54,0,0,1-5.9-4.31,19,19,0,0,1-3.72-6.7,27.77,27.77,0,0,1-1.29-8.72,35.68,35.68,0,0,1,.89-8,33.48,33.48,0,0,1,2.58-7.39,31.51,31.51,0,0,1,4.06-6.35,27.31,27.31,0,0,1,5.36-5,24.74,24.74,0,0,1,6.44-3.22,23.19,23.19,0,0,1,7.44-1.19,18.83,18.83,0,0,1,8.58,1.79,18.16,18.16,0,0,1,6.3,5.35l-3.92,4.66a5.21,5.21,0,0,1-1,.84,2.45,2.45,0,0,1-1.29.35,2.59,2.59,0,0,1-1.54-.49,12.69,12.69,0,0,0-1.59-1.14,10.11,10.11,0,0,0-2.28-1.1,9.53,9.53,0,0,0-3.52-.54,10.35,10.35,0,0,0-5.4,1.54,14.92,14.92,0,0,0-4.56,4.36,23.72,23.72,0,0,0-3.18,6.79,31.75,31.75,0,0,0-1.14,8.78c0,3.73.83,6.63,2.48,8.67a8.26,8.26,0,0,0,6.75,3,12.33,12.33,0,0,0,3.32-.4,14,14,0,0,0,2.53-.94,13.82,13.82,0,0,0,2-1.24c.56-.46,1.09-.88,1.59-1.24a12.23,12.23,0,0,1,1.39-1,3,3,0,0,1,1.48-.4,2.18,2.18,0,0,1,1.19.35,3.38,3.38,0,0,1,1,.79Z" transform="translate(-0.5)"/><path id="path15325" class="cls-5" d="M1928.65,515.09a10.42,10.42,0,0,0-4.61,1,12.6,12.6,0,0,0-3.87,2.83,19.1,19.1,0,0,0-3,4.41,27.52,27.52,0,0,0-2,5.55,84.22,84.22,0,0,0,9.87-1.83,27.2,27.2,0,0,0,5.8-2.18,5.82,5.82,0,0,0,3.37-5.41,3.87,3.87,0,0,0-.34-1.54,3.34,3.34,0,0,0-1-1.38,4.7,4.7,0,0,0-1.73-1.05,6.59,6.59,0,0,0-2.53-.44Zm-14.48,22.31q0,12,10.17,12a14.73,14.73,0,0,0,6.79-1.44,12.45,12.45,0,0,0,2.28-1.34l1.88-1.34a15.8,15.8,0,0,1,1.74-1,3.81,3.81,0,0,1,1.83-.44,2.3,2.3,0,0,1,1.14.29,3.57,3.57,0,0,1,1,.8l3.12,3.76a50.73,50.73,0,0,1-5.16,4.57,28.52,28.52,0,0,1-5.15,3.17,24,24,0,0,1-5.56,1.83,31.53,31.53,0,0,1-6.34.6,21.16,21.16,0,0,1-8.09-1.49,18.12,18.12,0,0,1-6.19-4.26,19.76,19.76,0,0,1-4-6.65,26.11,26.11,0,0,1-1.39-8.72,36.46,36.46,0,0,1,.85-7.89,36,36,0,0,1,2.52-7.33,30.82,30.82,0,0,1,4-6.4,27.8,27.8,0,0,1,5.35-5.06,25.25,25.25,0,0,1,6.6-3.32,24.68,24.68,0,0,1,7.73-1.19,19.4,19.4,0,0,1,7,1.14,15,15,0,0,1,5,3,11.52,11.52,0,0,1,3,4,10.72,10.72,0,0,1,1,4.37,13.88,13.88,0,0,1-1.39,6.24,12.51,12.51,0,0,1-4.86,5.06,34.38,34.38,0,0,1-9.52,3.87,104.1,104.1,0,0,1-15.37,2.53Z" transform="translate(-0.5)"/></g></g></g><g id="logo_full_black"><g id="path15328-6" data-name="path15328"><path class="cls-6" d="M146.07,422a15.07,15.07,0,0,1-21-1.78c-4.46-5.36-4.69-13.84,1.56-20.09,1.56-1.78,3.57-4,5.13-5.8,6.69-8.25,10.49-19.63,10.49-32.57,0-32.36-17.18-49.54-50.65-49.54H65.74v112.9a14.84,14.84,0,0,1-29.68,0V298.34a14.86,14.86,0,0,1,14.73-14.72H91.63c49.53,0,80.1,29.67,80.1,78.1C171.73,385.14,162.58,407.9,146.07,422Z" transform="translate(-0.5)"/><path class="cls-4" d="M95.2,439.81a14.84,14.84,0,1,1,15-14.73A14.86,14.86,0,0,1,95.2,439.81Z" transform="translate(-0.5)"/></g><g id="path15330-2" data-name="path15330"><path class="cls-6" d="M309.22,376,269.5,292.1a15.06,15.06,0,0,0-13.39-8.48,14.8,14.8,0,0,0-13.38,8.48L182.48,418.61a15.2,15.2,0,0,0,7.14,19.86,14.92,14.92,0,0,0,19.63-7.14l14.06-29.45h75a14.75,14.75,0,0,0,12.27-6.69C315.69,387.6,311.67,381.13,309.22,376Zm-73.86.44,20.75-43.73,21,43.73Z" transform="translate(-0.5)"/><path class="cls-4" d="M331.09,425.08a14.84,14.84,0,1,1-14.95-14.94A14.91,14.91,0,0,1,331.09,425.08Z" transform="translate(-0.5)"/></g><g id="path15332-2" data-name="path15332"><path class="cls-6" d="M395.24,425.08a14.73,14.73,0,1,1-29.45,0V313.29H333.43a14.84,14.84,0,0,1,0-29.67h47.09c8.92,0,14.72,6.69,14.72,14.72Z" transform="translate(-0.5)"/><path class="cls-4" d="M442.33,298.34a14.84,14.84,0,1,1-14.73-14.72A14.91,14.91,0,0,1,442.33,298.34Z" transform="translate(-0.5)"/></g><g id="path15334-2" data-name="path15334"><path class="cls-6" d="M560.66,376l-39.72-83.9a15.06,15.06,0,0,0-13.38-8.48,14.82,14.82,0,0,0-13.39,8.48L433.92,418.61a15.2,15.2,0,0,0,7.14,19.86,14.93,14.93,0,0,0,19.64-7.14l14.06-29.45h75A14.75,14.75,0,0,0,562,395.19C567.13,387.6,563.12,381.13,560.66,376Zm-73.86.44,20.76-43.73,21,43.73Z" transform="translate(-0.5)"/><path class="cls-4" d="M582.53,425.08a14.84,14.84,0,1,1-14.95-14.94A14.9,14.9,0,0,1,582.53,425.08Z" transform="translate(-0.5)"/></g><g id="path15336-2" data-name="path15336"><path class="cls-6" d="M655.3,439.81H623.84a14.85,14.85,0,0,1-14.73-14.73V298.34a14.84,14.84,0,0,1,29.68,0v111.8H655.3a14.84,14.84,0,0,1,0,29.67Z" transform="translate(-0.5)"/><path class="cls-4" d="M685,425.08a14.73,14.73,0,1,1,14.72,14.73A14.76,14.76,0,0,1,685,425.08Z" transform="translate(-0.5)"/></g><g id="path15338-2" data-name="path15338"><path class="cls-6" d="M751.52,439.81a14.86,14.86,0,0,1-14.73-14.73V298.34a14.86,14.86,0,0,1,14.73-14.72h30.79a14.84,14.84,0,0,1,0,29.67H766.47v34.14h51.77c8.25,0,14.72,6,14.72,14.29,0,8-6.47,14-14.72,14H766.47v34.37h60.92a14.84,14.84,0,0,1,0,29.67Z" transform="translate(-0.5)"/><path class="cls-4" d="M826.72,313.29a14.84,14.84,0,1,1,14.72-15A14.95,14.95,0,0,1,826.72,313.29Z" transform="translate(-0.5)"/></g><g id="path15340-2" data-name="path15340"><path class="cls-6" d="M989.47,376l-39.72-83.9a15.07,15.07,0,0,0-13.39-8.48A14.83,14.83,0,0,0,923,292.1L862.72,418.61a15.2,15.2,0,0,0,7.14,19.86,14.93,14.93,0,0,0,19.64-7.14l14.06-29.45h75a14.74,14.74,0,0,0,12.27-6.69C995.94,387.6,991.92,381.13,989.47,376Zm-73.86.44,20.75-43.73,21,43.73Z" transform="translate(-0.5)"/><path class="cls-4" d="M1011.33,425.08a14.84,14.84,0,1,1-15-14.94A14.9,14.9,0,0,1,1011.33,425.08Z" transform="translate(-0.5)"/></g><g id="path15342-2" data-name="path15342"><path class="cls-6" d="M1139.44,435.8a15,15,0,0,1-21-.45l-52-55.11v44.84a14.84,14.84,0,0,1-29.68,0V298.34a14.84,14.84,0,0,1,29.68,0v39.27l17-18.07a14.75,14.75,0,1,1,21,20.75l-19.86,18.3,55.34,56.23A15,15,0,0,1,1139.44,435.8Z" transform="translate(-0.5)"/><path class="cls-4" d="M1124.94,283.62a14.84,14.84,0,1,1-14.73,14.72A14.91,14.91,0,0,1,1124.94,283.62Z" transform="translate(-0.5)"/></g><g id="slogan-3" data-name="slogan"><path id="path15315-2" data-name="path15315" class="cls-6" d="M474.51,499.18,471.78,521h24.4l-1.39,10.26H470.54l-3.62,29.35H454l8.83-71.69h41.8l-1.29,10.26Z" transform="translate(-0.5)"/><path id="path15317-2" data-name="path15317" class="cls-6" d="M516.49,521.94a37.36,37.36,0,0,1,4.11-6.45,19.4,19.4,0,0,1,4.62-4.21,10.92,10.92,0,0,1,4.9-1.79,9.78,9.78,0,0,1,5.06.8L533,522q-6-2.54-10.61,1.24t-7.24,14.82l-2.73,22.56h-12l6.14-50.92h6.25a4.35,4.35,0,0,1,3,.94,3.83,3.83,0,0,1,1.09,3Z" transform="translate(-0.5)"/><path id="path15319-2" data-name="path15319" class="cls-6" d="M567.21,517.77c-.46,0-.91,0-1.34,0s-.79-.05-1.19-.05a15.86,15.86,0,0,0-7.63,1.89,19.62,19.62,0,0,0-6.1,5.11,24.86,24.86,0,0,0-4,7.43,27.45,27.45,0,0,0-1.44,8.93c0,3.57.57,6.18,1.69,7.83a5.29,5.29,0,0,0,4.61,2.48,6.7,6.7,0,0,0,4-1.39,17,17,0,0,0,3.72-3.86,31.15,31.15,0,0,0,3.22-5.81,53.4,53.4,0,0,0,2.58-7.14ZM563.84,550a30.35,30.35,0,0,1-7.64,8.28,15.31,15.31,0,0,1-9.22,3.08,13,13,0,0,1-5.4-1.14,12.52,12.52,0,0,1-4.37-3.38,17.4,17.4,0,0,1-2.92-5.65,27.29,27.29,0,0,1-1-8,34.66,34.66,0,0,1,1.14-8.88,34.52,34.52,0,0,1,8.33-15.07,32.75,32.75,0,0,1,6.64-5.45,32.42,32.42,0,0,1,8-3.52,31.53,31.53,0,0,1,9.08-1.29,47.68,47.68,0,0,1,6.84.49,29.81,29.81,0,0,1,6.74,1.79l-6.1,49.33h-6.49c-1.56,0-2.61-.38-3.18-1.14a5.22,5.22,0,0,1-.79-2.92Z" transform="translate(-0.5)"/><path id="path15321-2" data-name="path15321" class="cls-6" d="M601.32,520.25a27.59,27.59,0,0,1,8.58-8.48,18.68,18.68,0,0,1,9.72-2.82,12.39,12.39,0,0,1,5.7,1.29,10.81,10.81,0,0,1,4.16,3.77,15.61,15.61,0,0,1,2.28,6,25.52,25.52,0,0,1,.1,8.19L628,560.61H615.8l3.82-32.37q.64-5-.5-7.09A4.27,4.27,0,0,0,615,519a8.56,8.56,0,0,0-4.17,1.19,15.44,15.44,0,0,0-4.11,3.33,26,26,0,0,0-3.67,5.15,31.44,31.44,0,0,0-2.68,6.7l-2.83,25.28H585.26l6.09-50.92h6.2a4.35,4.35,0,0,1,3,.94,3.83,3.83,0,0,1,1.09,3Z" transform="translate(-0.5)"/><path id="path15323-2" data-name="path15323" class="cls-6" d="M678.07,551.59a44.88,44.88,0,0,1-4.85,4.66,22.85,22.85,0,0,1-4.67,3,18.82,18.82,0,0,1-5,1.59,30.34,30.34,0,0,1-5.71.5,20.23,20.23,0,0,1-7.93-1.49,16.84,16.84,0,0,1-5.9-4.31,19.21,19.21,0,0,1-3.72-6.7,27.77,27.77,0,0,1-1.29-8.72,35.77,35.77,0,0,1,.9-8,34.08,34.08,0,0,1,2.57-7.38,31.55,31.55,0,0,1,4.07-6.35,27,27,0,0,1,5.36-5,24.44,24.44,0,0,1,6.44-3.22,22.92,22.92,0,0,1,7.44-1.19,18.83,18.83,0,0,1,8.58,1.78,18.16,18.16,0,0,1,6.29,5.36l-3.91,4.66a5,5,0,0,1-1,.84,2.5,2.5,0,0,1-1.29.35,2.57,2.57,0,0,1-1.53-.5,15.12,15.12,0,0,0-1.59-1.14,10.57,10.57,0,0,0-2.28-1.09,9.57,9.57,0,0,0-3.52-.54,10.41,10.41,0,0,0-5.4,1.53,15.1,15.1,0,0,0-4.57,4.37,23.32,23.32,0,0,0-3.17,6.79,31.68,31.68,0,0,0-1.14,8.77q0,5.61,2.48,8.68a8.24,8.24,0,0,0,6.74,3,12.63,12.63,0,0,0,3.32-.4,13.69,13.69,0,0,0,2.53-.94,14.54,14.54,0,0,0,2-1.24c.56-.46,1.09-.88,1.58-1.24a13.19,13.19,0,0,1,1.39-1,2.9,2.9,0,0,1,1.49-.4A2.18,2.18,0,0,1,674,547a3.5,3.5,0,0,1,1,.79Z" transform="translate(-0.5)"/><path id="path15325-2" data-name="path15325" class="cls-6" d="M709.35,517.58a10.26,10.26,0,0,0-4.61,1,12.61,12.61,0,0,0-3.87,2.82,19.1,19.1,0,0,0-3,4.42,27.9,27.9,0,0,0-2,5.55,81.89,81.89,0,0,0,9.87-1.84,26.87,26.87,0,0,0,5.8-2.18A5.82,5.82,0,0,0,715,522a3.86,3.86,0,0,0-.35-1.54,3.43,3.43,0,0,0-1-1.39,4.78,4.78,0,0,0-1.73-1,6.4,6.4,0,0,0-2.53-.44Zm-14.48,22.31q0,12,10.16,12a17.18,17.18,0,0,0,3.87-.4,17.69,17.69,0,0,0,2.93-1,12.8,12.8,0,0,0,2.28-1.34l1.88-1.34a12.51,12.51,0,0,1,1.74-1,3.81,3.81,0,0,1,1.83-.45,2.31,2.31,0,0,1,1.14.3,3.5,3.5,0,0,1,1,.79l3.13,3.77a54.15,54.15,0,0,1-5.16,4.56,29,29,0,0,1-5.16,3.18,24.75,24.75,0,0,1-5.55,1.83,31.63,31.63,0,0,1-6.35.6,21.11,21.11,0,0,1-8.08-1.49,18.32,18.32,0,0,1-6.2-4.27,19.69,19.69,0,0,1-4-6.64,25.87,25.87,0,0,1-1.39-8.73A34.82,34.82,0,0,1,686.34,525a31,31,0,0,1,4-6.39,27.51,27.51,0,0,1,5.35-5.06,25.25,25.25,0,0,1,6.6-3.32,24.4,24.4,0,0,1,7.73-1.19,19.34,19.34,0,0,1,6.94,1.14,15.13,15.13,0,0,1,5,3,11.64,11.64,0,0,1,3,4,10.57,10.57,0,0,1,1,4.36,14.05,14.05,0,0,1-1.39,6.25,12.58,12.58,0,0,1-4.86,5.06,34.84,34.84,0,0,1-9.52,3.86,103,103,0,0,1-15.37,2.53Z" transform="translate(-0.5)"/></g></g><g id="logo_full_without_slogan"><g id="path15328-7" data-name="path15328"><path class="cls-5" d="M1365.37,1086.11a15.08,15.08,0,0,1-21-1.79c-4.46-5.35-4.69-13.83,1.56-20.08,1.57-1.79,3.57-4,5.13-5.8,6.7-8.26,10.49-19.64,10.49-32.58,0-32.36-17.18-49.54-50.65-49.54h-25.88v112.91a14.84,14.84,0,0,1-29.68,0V962.49a14.86,14.86,0,0,1,14.73-14.73h40.83c49.54,0,80.11,29.68,80.11,78.1C1391,1049.29,1381.89,1072.05,1365.37,1086.11Z" transform="translate(-0.5)"/><path class="cls-4" d="M1314.5,1104a14.84,14.84,0,1,1,15-14.73A14.87,14.87,0,0,1,1314.5,1104Z" transform="translate(-0.5)"/></g><g id="path15330-3" data-name="path15330"><path class="cls-5" d="M1528.52,1040.14l-39.71-83.9a15.08,15.08,0,0,0-13.39-8.48,14.82,14.82,0,0,0-13.39,8.48l-60.25,126.52a15.2,15.2,0,0,0,7.14,19.86,14.94,14.94,0,0,0,19.64-7.14l14.06-29.45h75a14.73,14.73,0,0,0,12.27-6.7C1535,1051.74,1531,1045.27,1528.52,1040.14Zm-73.86.45,20.76-43.74,21,43.74Z" transform="translate(-0.5)"/><path class="cls-4" d="M1550.39,1089.23a14.84,14.84,0,1,1-15-15A14.91,14.91,0,0,1,1550.39,1089.23Z" transform="translate(-0.5)"/></g><g id="path15332-3" data-name="path15332"><path class="cls-5" d="M1614.55,1089.23a14.73,14.73,0,0,1-29.46,0V977.44h-32.35a14.84,14.84,0,0,1,0-29.68h47.08c8.93,0,14.73,6.7,14.73,14.73Z" transform="translate(-0.5)"/><path class="cls-4" d="M1661.63,962.49a14.84,14.84,0,1,1-14.73-14.73A14.91,14.91,0,0,1,1661.63,962.49Z" transform="translate(-0.5)"/></g><g id="path15334-3" data-name="path15334"><path class="cls-5" d="M1780,1040.14l-39.72-83.9a15.07,15.07,0,0,0-13.39-8.48,14.83,14.83,0,0,0-13.39,8.48l-60.25,126.52a15.21,15.21,0,0,0,7.14,19.86,14.94,14.94,0,0,0,19.64-7.14l14.06-29.45h75a14.72,14.72,0,0,0,12.27-6.7C1786.44,1051.74,1782.42,1045.27,1780,1040.14Zm-73.86.45,20.75-43.74,21,43.74Z" transform="translate(-0.5)"/><path class="cls-4" d="M1801.83,1089.23a14.84,14.84,0,1,1-14.95-15A14.91,14.91,0,0,1,1801.83,1089.23Z" transform="translate(-0.5)"/></g><g id="path15336-3" data-name="path15336"><path class="cls-5" d="M1874.6,1104h-31.46a14.87,14.87,0,0,1-14.73-14.73V962.49a14.84,14.84,0,0,1,29.68,0v111.79h16.51a14.84,14.84,0,0,1,0,29.68Z" transform="translate(-0.5)"/><path class="cls-4" d="M1904.28,1089.23A14.73,14.73,0,1,1,1919,1104,14.76,14.76,0,0,1,1904.28,1089.23Z" transform="translate(-0.5)"/></g><g id="path15338-3" data-name="path15338"><path class="cls-5" d="M1970.82,1104a14.86,14.86,0,0,1-14.72-14.73V962.49a14.86,14.86,0,0,1,14.72-14.73h30.8a14.84,14.84,0,0,1,0,29.68h-15.85v34.14h51.77c8.26,0,14.73,6,14.73,14.28,0,8-6.47,14.06-14.73,14.06h-51.77v34.36h60.92a14.84,14.84,0,0,1,0,29.68Z" transform="translate(-0.5)"/><path class="cls-4" d="M2046,977.44a14.84,14.84,0,1,1,14.73-15A15,15,0,0,1,2046,977.44Z" transform="translate(-0.5)"/></g><g id="path15340-3" data-name="path15340"><path class="cls-5" d="M2208.77,1040.14l-39.72-83.9a15.06,15.06,0,0,0-13.39-8.48,14.8,14.8,0,0,0-13.38,8.48L2082,1082.76a15.2,15.2,0,0,0,7.14,19.86,14.93,14.93,0,0,0,19.63-7.14l14.06-29.45h75a14.73,14.73,0,0,0,12.27-6.7C2215.24,1051.74,2211.22,1045.27,2208.77,1040.14Zm-73.86.45,20.75-43.74,21,43.74Z" transform="translate(-0.5)"/><path class="cls-4" d="M2230.64,1089.23a14.84,14.84,0,1,1-14.95-15A14.91,14.91,0,0,1,2230.64,1089.23Z" transform="translate(-0.5)"/></g><g id="path15342-3" data-name="path15342"><path class="cls-5" d="M2358.74,1099.94a15,15,0,0,1-21-.44l-52-55.12v44.85a14.84,14.84,0,0,1-29.68,0V962.49a14.84,14.84,0,0,1,29.68,0v39.27l17-18.07a14.75,14.75,0,1,1,21,20.75l-19.86,18.3,55.34,56.23A15,15,0,0,1,2358.74,1099.94Z" transform="translate(-0.5)"/><path class="cls-4" d="M2344.24,947.76a14.84,14.84,0,1,1-14.73,14.73A14.91,14.91,0,0,1,2344.24,947.76Z" transform="translate(-0.5)"/></g></g><g id="logo_full_without_slogan_black"><g id="path15328-8" data-name="path15328"><path class="cls-6" d="M146.07,1086.11a15.07,15.07,0,0,1-21-1.79c-4.46-5.35-4.69-13.83,1.56-20.08,1.56-1.79,3.57-4,5.13-5.8,6.69-8.26,10.49-19.64,10.49-32.58,0-32.36-17.18-49.54-50.65-49.54H65.74v112.91a14.84,14.84,0,0,1-29.68,0V962.49a14.87,14.87,0,0,1,14.73-14.73H91.63c49.53,0,80.1,29.68,80.1,78.1C171.73,1049.29,162.58,1072.05,146.07,1086.11Z" transform="translate(-0.5)"/><path class="cls-4" d="M95.2,1104a14.84,14.84,0,1,1,15-14.73A14.87,14.87,0,0,1,95.2,1104Z" transform="translate(-0.5)"/></g><g id="path15330-4" data-name="path15330"><path class="cls-6" d="M309.22,1040.14l-39.72-83.9a15.06,15.06,0,0,0-13.39-8.48,14.8,14.8,0,0,0-13.38,8.48l-60.25,126.52a15.2,15.2,0,0,0,7.14,19.86,14.93,14.93,0,0,0,19.63-7.14L223.31,1066h75a14.73,14.73,0,0,0,12.27-6.7C315.69,1051.74,311.67,1045.27,309.22,1040.14Zm-73.86.45,20.75-43.74,21,43.74Z" transform="translate(-0.5)"/><path class="cls-4" d="M331.09,1089.23a14.84,14.84,0,1,1-14.95-15A14.91,14.91,0,0,1,331.09,1089.23Z" transform="translate(-0.5)"/></g><g id="path15332-4" data-name="path15332"><path class="cls-6" d="M395.24,1089.23a14.73,14.73,0,1,1-29.45,0V977.44H333.43a14.84,14.84,0,0,1,0-29.68h47.09c8.92,0,14.72,6.7,14.72,14.73Z" transform="translate(-0.5)"/><path class="cls-4" d="M442.33,962.49a14.84,14.84,0,1,1-14.73-14.73A14.91,14.91,0,0,1,442.33,962.49Z" transform="translate(-0.5)"/></g><g id="path15334-4" data-name="path15334"><path class="cls-6" d="M560.66,1040.14l-39.72-83.9a15.06,15.06,0,0,0-13.38-8.48,14.82,14.82,0,0,0-13.39,8.48l-60.25,126.52a15.2,15.2,0,0,0,7.14,19.86,14.94,14.94,0,0,0,19.64-7.14L474.76,1066h75a14.73,14.73,0,0,0,12.27-6.7C567.13,1051.74,563.12,1045.27,560.66,1040.14Zm-73.86.45,20.76-43.74,21,43.74Z" transform="translate(-0.5)"/><path class="cls-4" d="M582.53,1089.23a14.84,14.84,0,1,1-14.95-15A14.91,14.91,0,0,1,582.53,1089.23Z" transform="translate(-0.5)"/></g><g id="path15336-4" data-name="path15336"><path class="cls-6" d="M655.3,1104H623.84a14.86,14.86,0,0,1-14.73-14.73V962.49a14.84,14.84,0,0,1,29.68,0v111.79H655.3a14.84,14.84,0,0,1,0,29.68Z" transform="translate(-0.5)"/><path class="cls-4" d="M685,1089.23A14.73,14.73,0,1,1,699.7,1104,14.76,14.76,0,0,1,685,1089.23Z" transform="translate(-0.5)"/></g><g id="path15338-4" data-name="path15338"><path class="cls-6" d="M751.52,1104a14.87,14.87,0,0,1-14.73-14.73V962.49a14.87,14.87,0,0,1,14.73-14.73h30.79a14.84,14.84,0,0,1,0,29.68H766.47v34.14h51.77c8.25,0,14.72,6,14.72,14.28,0,8-6.47,14.06-14.72,14.06H766.47v34.36h60.92a14.84,14.84,0,0,1,0,29.68Z" transform="translate(-0.5)"/><path class="cls-4" d="M826.72,977.44a14.84,14.84,0,1,1,14.72-15A15,15,0,0,1,826.72,977.44Z" transform="translate(-0.5)"/></g><g id="path15340-4" data-name="path15340"><path class="cls-6" d="M989.47,1040.14l-39.72-83.9a15.07,15.07,0,0,0-13.39-8.48A14.83,14.83,0,0,0,923,956.24l-60.25,126.52a15.21,15.21,0,0,0,7.14,19.86,14.94,14.94,0,0,0,19.64-7.14L903.56,1066h75a14.72,14.72,0,0,0,12.27-6.7C995.94,1051.74,991.92,1045.27,989.47,1040.14Zm-73.86.45,20.75-43.74,21,43.74Z" transform="translate(-0.5)"/><path class="cls-4" d="M1011.33,1089.23a14.84,14.84,0,1,1-15-15A14.91,14.91,0,0,1,1011.33,1089.23Z" transform="translate(-0.5)"/></g><g id="path15342-4" data-name="path15342"><path class="cls-6" d="M1139.44,1099.94a15,15,0,0,1-21-.44l-52-55.12v44.85a14.84,14.84,0,0,1-29.68,0V962.49a14.84,14.84,0,0,1,29.68,0v39.27l17-18.07a14.75,14.75,0,1,1,21,20.75l-19.86,18.3,55.34,56.23A15,15,0,0,1,1139.44,1099.94Z" transform="translate(-0.5)"/><path class="cls-4" d="M1124.94,947.76a14.84,14.84,0,1,1-14.73,14.73A14.91,14.91,0,0,1,1124.94,947.76Z" transform="translate(-0.5)"/></g></g><g id="logo_simple"><g id="logo_simple_white"><g id="path15328-9" data-name="path15328"><path class="cls-5" d="M2823.41,314.79a21.6,21.6,0,0,1-30-2.56c-6.39-7.67-6.71-19.81,2.24-28.76,2.24-2.55,5.11-5.75,7.35-8.31,9.59-11.82,15-28.12,15-46.65,0-46.34-24.61-70.95-72.54-70.95h-37.07v161.7a21.25,21.25,0,0,1-42.5,0V137.75A21.28,21.28,0,0,1,2687,116.66h58.48c70.94,0,114.72,42.5,114.72,111.85C2860.16,262.06,2847.06,294.66,2823.41,314.79Z" transform="translate(-0.5)"/><path class="cls-4" d="M2750.55,340.36a21.26,21.26,0,1,1,21.41-21.1A21.28,21.28,0,0,1,2750.55,340.36Z" transform="translate(-0.5)"/></g></g><g id="logo_simple_black"><g id="path15328-10" data-name="path15328"><path class="cls-6" d="M3300.43,314.79a21.6,21.6,0,0,1-30-2.56c-6.39-7.67-6.71-19.81,2.24-28.76,2.24-2.55,5.11-5.75,7.35-8.31,9.58-11.82,15-28.12,15-46.65,0-46.34-24.61-70.95-72.54-70.95h-37.07v161.7a21.26,21.26,0,0,1-42.51,0V137.75a21.28,21.28,0,0,1,21.1-21.09h58.48c70.94,0,114.72,42.5,114.72,111.85C3337.18,262.06,3324.08,294.66,3300.43,314.79Z" transform="translate(-0.5)"/><path class="cls-4" d="M3227.57,340.36a21.26,21.26,0,1,1,21.41-21.1A21.28,21.28,0,0,1,3227.57,340.36Z" transform="translate(-0.5)"/></g></g></g><g id="logo_simple_uni_color"><g id="logo_simple_uni_color_white"><g id="path15328-11" data-name="path15328"><path class="cls-5" d="M2823.41,890.79a21.6,21.6,0,0,1-30-2.56c-6.39-7.67-6.71-19.81,2.24-28.76,2.24-2.55,5.11-5.75,7.35-8.31,9.59-11.82,15-28.12,15-46.65,0-46.34-24.61-71-72.54-71h-37.07v161.7a21.25,21.25,0,0,1-42.5,0V713.75A21.28,21.28,0,0,1,2687,692.66h58.48c70.94,0,114.72,42.5,114.72,111.85C2860.16,838.06,2847.06,870.66,2823.41,890.79Z" transform="translate(-0.5)"/><path class="cls-5" d="M2750.55,916.36a21.26,21.26,0,1,1,21.41-21.1A21.28,21.28,0,0,1,2750.55,916.36Z" transform="translate(-0.5)"/></g></g><g id="logo_simple_uni_color_black"><g id="path15328-12" data-name="path15328"><path class="cls-6" d="M3300.43,890.79a21.6,21.6,0,0,1-30-2.56c-6.39-7.67-6.71-19.81,2.24-28.76,2.24-2.55,5.11-5.75,7.35-8.31,9.58-11.82,15-28.12,15-46.65,0-46.34-24.61-71-72.54-71h-37.07v161.7a21.26,21.26,0,0,1-42.51,0V713.75a21.28,21.28,0,0,1,21.1-21.09h58.48c70.94,0,114.72,42.5,114.72,111.85C3337.18,838.06,3324.08,870.66,3300.43,890.79Z" transform="translate(-0.5)"/><path class="cls-6" d="M3227.57,916.36a21.26,21.26,0,1,1,21.41-21.1A21.28,21.28,0,0,1,3227.57,916.36Z" transform="translate(-0.5)"/></g></g></g><g id="logo_simple_hexa"><g id="logo_simple_hexa_white"><g class="cls-7"><path class="cls-3" d="M4033.62,107.2c-14.29,8.25-26,28.5-26,45V304.81c0,16.5,11.69,36.75,26,45l132.16,76.31c14.29,8.25,37.67,8.25,52,0l132.16-76.31c14.29-8.25,26-28.5,26-45V152.2c0-16.5-11.69-36.75-26-45L4217.74,30.9c-14.29-8.25-37.67-8.25-52,0Z" transform="translate(-0.5)"/><path class="cls-8" d="M4033.62,107.2c-14.29,8.25-26,28.5-26,45V304.81c0,16.5,11.69,36.75,26,45l132.16,76.31c14.29,8.25,37.67,8.25,52,0l132.16-76.31c14.29-8.25,26-28.5,26-45V152.2c0-16.5-11.69-36.75-26-45L4217.74,30.9c-14.29-8.25-37.67-8.25-52,0Z" transform="translate(-0.5)"/></g><path class="cls-4" d="M4181.6,340.36a21.26,21.26,0,1,1,21.41-21.1A21.28,21.28,0,0,1,4181.6,340.36Z" transform="translate(-0.5)"/></g><g id="logo_simple_hexa_semi_transp"><g class="cls-9"><path class="cls-3" d="M3556.6,107.2c-14.29,8.25-26,28.5-26,45V304.81c0,16.5,11.69,36.75,26,45l132.16,76.31c14.29,8.25,37.68,8.25,52,0l132.17-76.31c14.29-8.25,26-28.5,26-45V152.2c0-16.5-11.69-36.75-26-45L3740.72,30.9c-14.28-8.25-37.67-8.25-52,0Z" transform="translate(-0.5)"/><path class="cls-8" d="M3556.6,107.2c-14.29,8.25-26,28.5-26,45V304.81c0,16.5,11.69,36.75,26,45l132.16,76.31c14.29,8.25,37.68,8.25,52,0l132.17-76.31c14.29-8.25,26-28.5,26-45V152.2c0-16.5-11.69-36.75-26-45L3740.72,30.9c-14.28-8.25-37.67-8.25-52,0Z" transform="translate(-0.5)"/></g><path class="cls-4" d="M3704.28,340.36a21.26,21.26,0,1,1,21.41-21.1A21.28,21.28,0,0,1,3704.28,340.36Z" transform="translate(-0.5)"/></g></g><g id="logo_simple_uni_color_hexa"><g id="logo_simple_uni_color_hexa_semi_transp"><g class="cls-10"><path class="cls-3" d="M3556.6,683.2c-14.29,8.25-26,28.5-26,45V880.81c0,16.5,11.69,36.75,26,45l132.16,76.31c14.29,8.25,37.68,8.25,52,0l132.17-76.31c14.29-8.25,26-28.5,26-45V728.2c0-16.5-11.69-36.75-26-45l-132.17-76.3c-14.28-8.25-37.67-8.25-52,0Z" transform="translate(-0.5)"/><path class="cls-8" d="M3556.6,683.2c-14.29,8.25-26,28.5-26,45V880.81c0,16.5,11.69,36.75,26,45l132.16,76.31c14.29,8.25,37.68,8.25,52,0l132.17-76.31c14.29-8.25,26-28.5,26-45V728.2c0-16.5-11.69-36.75-26-45l-132.17-76.3c-14.28-8.25-37.67-8.25-52,0Z" transform="translate(-0.5)"/></g></g><g id="logo_simple_uni_color_hexa_white"><g class="cls-11"><path class="cls-3" d="M4033.62,683.2c-14.29,8.25-26,28.5-26,45V880.81c0,16.5,11.69,36.75,26,45l132.16,76.31c14.29,8.25,37.67,8.25,52,0l132.16-76.31c14.29-8.25,26-28.5,26-45V728.2c0-16.5-11.69-36.75-26-45l-132.16-76.3c-14.29-8.25-37.67-8.25-52,0Z" transform="translate(-0.5)"/><path class="cls-8" d="M4033.62,683.2c-14.29,8.25-26,28.5-26,45V880.81c0,16.5,11.69,36.75,26,45l132.16,76.31c14.29,8.25,37.67,8.25,52,0l132.16-76.31c14.29-8.25,26-28.5,26-45V728.2c0-16.5-11.69-36.75-26-45l-132.16-76.3c-14.29-8.25-37.67-8.25-52,0Z" transform="translate(-0.5)"/></g></g></g></g></svg>